<?xml version="1.0" encoding="UTF-8"?>
<svg xmlns="http://www.w3.org/2000/svg" viewBox="0 0 686 696" width="686" height="696">
  <path id="gorilla" d="M 282,0 L 274,12 L 266,12 L 266,20 L 258,20 L 256,31 L 250,33 L 250,48 L 242,52 L 243,85 L 240,86 L 244,87 L 244,95 L 235,100 L 226,97 L 225,103 L 219,106 L 209,105 L 209,111 L 203,115 L 192,113 L 187,128 L 176,131 L 176,143 L 172,145 L 173,153 L 168,167 L 163,169 L 163,177 L 148,179 L 144,176 L 143,182 L 134,182 L 133,177 L 127,186 L 115,186 L 113,194 L 96,194 L 97,204 L 90,204 L 89,216 L 80,218 L 81,224 L 72,227 L 73,237 L 67,241 L 65,254 L 68,255 L 68,280 L 64,285 L 72,287 L 72,295 L 65,296 L 71,301 L 71,305 L 66,307 L 69,313 L 62,321 L 56,322 L 55,329 L 51,329 L 54,336 L 49,337 L 49,348 L 42,348 L 46,356 L 40,372 L 41,384 L 35,391 L 39,392 L 33,406 L 35,412 L 27,420 L 23,441 L 17,444 L 20,445 L 18,492 L 10,498 L 13,554 L 7,563 L 0,565 L 0,570 L 4,571 L 4,576 L 0,577 L 0,648 L 3,649 L 0,661 L 8,658 L 16,664 L 18,675 L 34,678 L 41,686 L 66,686 L 76,677 L 77,644 L 51,636 L 46,627 L 53,627 L 60,621 L 64,611 L 70,615 L 79,611 L 102,615 L 104,609 L 113,611 L 113,598 L 119,594 L 111,591 L 111,578 L 103,576 L 89,561 L 78,559 L 79,528 L 86,524 L 85,518 L 94,517 L 92,511 L 100,507 L 103,496 L 111,491 L 111,487 L 119,484 L 119,479 L 129,470 L 135,469 L 134,463 L 140,460 L 138,455 L 143,437 L 150,435 L 151,438 L 151,434 L 146,433 L 151,422 L 150,409 L 159,402 L 165,403 L 167,389 L 175,386 L 173,380 L 185,383 L 194,395 L 199,395 L 204,405 L 200,413 L 206,415 L 206,424 L 201,425 L 201,436 L 194,436 L 193,450 L 184,453 L 184,459 L 188,461 L 186,490 L 209,511 L 209,515 L 228,519 L 233,526 L 273,526 L 289,530 L 291,534 L 295,529 L 303,529 L 307,534 L 311,530 L 320,530 L 321,533 L 339,532 L 375,538 L 400,536 L 402,541 L 408,535 L 424,532 L 446,534 L 446,527 L 466,526 L 473,518 L 485,515 L 483,508 L 487,506 L 487,496 L 490,495 L 488,463 L 493,462 L 487,459 L 486,441 L 494,434 L 494,425 L 503,422 L 511,400 L 529,395 L 532,403 L 530,413 L 537,418 L 538,443 L 544,444 L 549,453 L 547,460 L 555,468 L 552,477 L 559,479 L 564,486 L 560,494 L 569,493 L 571,501 L 577,504 L 578,514 L 588,519 L 586,531 L 593,531 L 592,542 L 596,543 L 590,555 L 585,553 L 584,561 L 578,563 L 577,569 L 569,569 L 569,578 L 560,581 L 566,584 L 563,597 L 568,599 L 570,611 L 593,614 L 611,606 L 612,599 L 617,596 L 634,599 L 632,623 L 628,626 L 629,632 L 624,633 L 626,639 L 619,641 L 616,648 L 602,658 L 602,691 L 609,690 L 615,695 L 641,695 L 643,690 L 650,691 L 651,687 L 669,684 L 674,676 L 679,678 L 677,671 L 685,665 L 685,601 L 682,600 L 682,588 L 685,587 L 682,581 L 685,578 L 680,577 L 680,572 L 685,570 L 679,568 L 677,516 L 670,512 L 671,478 L 666,457 L 669,451 L 664,449 L 663,434 L 659,432 L 663,426 L 661,420 L 654,420 L 645,388 L 639,389 L 636,385 L 639,378 L 637,372 L 632,372 L 629,367 L 631,354 L 620,342 L 621,330 L 616,329 L 612,322 L 615,315 L 607,311 L 605,291 L 615,282 L 612,273 L 612,258 L 615,257 L 610,249 L 612,242 L 604,234 L 606,226 L 597,220 L 597,211 L 588,195 L 589,188 L 576,185 L 569,177 L 560,177 L 553,169 L 543,168 L 542,161 L 534,162 L 533,156 L 526,157 L 525,152 L 519,155 L 488,152 L 485,145 L 479,146 L 479,138 L 470,136 L 470,129 L 462,128 L 463,122 L 456,122 L 453,113 L 446,114 L 445,108 L 438,109 L 437,104 L 408,105 L 405,89 L 399,88 L 397,65 L 389,59 L 389,43 L 384,41 L 379,28 L 381,20 L 376,20 L 373,12 L 361,11 L 351,0 Z" fill="black" fill-rule="evenodd" stroke="none"/>
</svg>