<svg xmlns="http://www.w3.org/2000/svg" width="1400" height="900" viewBox="0 0 1400 900" preserveAspectRatio="none">
  <rect width="1400" height="900" fill="transparent" />
  <svg x="530.574557" y="78.310053" width="364.548866" height="420.322061" viewBox="0 0 2019 2048" preserveAspectRatio="none">
    <path transform="translate(0,0)" fill="rgb(0,0,0)" d="M 913.382 0 L 1002.71 0 C 1009.84 4.61319 1025.11 6.87851 1033.44 11.7972 C 1044.65 18.4168 1055.46 25.1232 1066.2 32.5063 C 1100.72 53.1728 1117.32 69.4755 1129.53 109.201 C 1134.87 126.58 1137.1 148.78 1143.66 165.232 C 1149.45 179.728 1161.18 195.891 1165.83 211.52 C 1175.7 244.738 1179.52 278.26 1198.19 308.498 C 1266.14 311.015 1302.2 320.068 1352.79 368.154 C 1361.41 376.346 1372.74 384.851 1380.48 393.406 C 1389.89 403.805 1398.32 414.041 1408.28 424.164 C 1413.54 429.504 1418.25 441.843 1425.89 445.765 C 1455.22 457.16 1488.03 449.979 1518.48 456.566 C 1523.24 457.596 1529.11 457.695 1533.68 459.397 C 1567.17 471.873 1597.6 493.1 1629.14 509.694 C 1654.47 523.015 1680.39 534.244 1705 548.703 C 1733.45 568.104 1749.25 598.306 1757.32 631.075 C 1758.31 635.093 1759.62 645.157 1761 648.436 C 1771.44 673.204 1786.81 695.573 1794.76 721.36 C 1809.02 767.668 1807.84 814.456 1784.8 857.631 C 1781.97 862.933 1783.55 902.423 1785.25 910.075 C 1789.01 927.023 1804.69 943.598 1810.69 960.336 C 1819.56 991.165 1834.76 1018.95 1845.23 1049.06 C 1852.6 1073.11 1859.06 1096.56 1868.44 1119.96 C 1876.36 1139.73 1890.85 1156.08 1899.71 1173.96 C 1912.26 1199.27 1913.62 1218.57 1930.84 1242.78 C 1944.52 1262.01 1950.02 1300.7 1957.01 1323.16 C 1971 1374.6 1980.78 1426.44 1977.59 1479.96 C 1977.08 1488.45 1974.97 1497.79 1975.69 1506.28 C 1980.82 1535.78 1986.46 1565.05 1991.02 1594.66 C 2000.06 1650.67 2006.7 1707.05 2010.9 1763.63 C 2011.39 1770.17 2013.15 1779.63 2012.97 1785.81 C 2012.11 1814.1 2013.82 1840.22 2015.91 1868.25 C 2019.05 1910.55 2011.67 1966.31 1979.48 1996.74 C 1951.74 2022.41 1922.75 2023.41 1888.5 2031.73 C 1881.2 2033.51 1869.26 2041.46 1860.27 2043.97 C 1850.41 2046.72 1846.56 2042.47 1841.27 2048 L 1840.43 2048 C 1839.53 2047.07 1838.25 2045.71 1836.85 2045.62 C 1823.52 2044.84 1812.4 2043.06 1800.73 2036.04 C 1785.52 2026.89 1774.64 2012 1770.56 1994.74 C 1767.56 1982.22 1768.11 1969.12 1772.14 1956.9 C 1785.89 1915.29 1823.33 1909.66 1846.38 1878.16 C 1860.3 1852.93 1860.11 1818.05 1864.98 1791.02 C 1871.57 1754.4 1859.56 1753.56 1830.42 1741.25 C 1819.18 1751.28 1809.43 1762.1 1796.61 1770.34 C 1780.84 1780.82 1769.11 1795.12 1750.35 1800.52 C 1728.24 1806.89 1709.24 1803.05 1690.96 1789.12 C 1654.61 1762.44 1658.83 1706.4 1691.64 1678.97 C 1710.34 1663.33 1723.98 1649.5 1739.45 1630.87 C 1746.65 1622.19 1757.05 1609.37 1765.71 1602.55 C 1757.35 1588.5 1749.05 1574.73 1742.29 1559.8 C 1738.19 1550.73 1735.43 1537.66 1730.28 1529.62 C 1725.71 1522.49 1717.37 1516.22 1711.84 1508.47 C 1702.24 1495.25 1695.56 1479.38 1686.04 1466.19 C 1673.46 1448.77 1660.13 1433.32 1648.87 1414.86 C 1637.8 1396.72 1632.6 1377.89 1624.68 1358.34 C 1612.93 1329.31 1599.01 1301.27 1589.6 1271.32 C 1583.23 1251.48 1579.7 1229.26 1573.71 1209.95 C 1567.6 1190.28 1562.54 1185.29 1559.16 1163.4 C 1553.37 1156.6 1541.34 1145.25 1534.66 1138.6 C 1531.51 1146.16 1517.33 1165.1 1511.42 1173.35 C 1484.42 1211.02 1447.84 1258.23 1433.92 1302.55 C 1430.28 1314.15 1436.72 1352.09 1438.22 1365.67 C 1439.8 1379.85 1439.16 1392.08 1439.32 1406.57 C 1439.36 1434.7 1441.08 1470.09 1425.67 1495.33 C 1396.64 1542.88 1339.29 1550.66 1289.28 1560.07 C 1271.13 1563.49 1255.81 1568.89 1238.88 1572.47 C 1170.04 1587.03 1097.42 1579.35 1027.94 1573.46 C 999.884 1571.02 970.641 1565.6 943.474 1563.51 L 798.393 1551.66 C 745.088 1547.27 703.274 1547.46 653.869 1522.35 C 643.566 1517.12 631.221 1514.98 618.396 1508.04 C 543.945 1467.76 536.095 1374.25 576.866 1307.03 C 580.707 1298.35 599.64 1278.84 602.141 1271.92 C 612.548 1243.12 604.084 1183.56 588.151 1157.69 C 583.199 1149.65 557.532 1134.64 550.517 1122.18 C 547.609 1117.02 525.294 1097.33 519.069 1092.96 C 499.794 1088.53 498.515 1127.23 495.756 1139.03 C 489.261 1162.71 465.902 1192.35 445.015 1203.83 C 442.668 1241.37 430.051 1265.78 419.237 1301.32 C 409.653 1332.82 403.552 1358.4 381.887 1384.84 C 365.407 1405.27 343.105 1416.27 325.72 1435.54 C 299.016 1465.14 281.513 1499.74 252.169 1526.98 C 246.369 1532.36 239.037 1542.46 233.089 1548.88 C 232.216 1556.84 229.996 1566.6 229.85 1574.44 C 229.425 1597.37 229.614 1620.72 229.662 1643.65 C 250.728 1665.17 272.598 1661.14 290.295 1680.06 C 312.771 1704.08 328.776 1725.14 334.662 1758.42 C 335.352 1762.32 335.475 1777.91 336.623 1778.72 C 340.553 1781.48 343.173 1782.59 347.246 1788.16 C 347.725 1808.41 348.733 1817.49 335.983 1835.22 C 335.681 1849.55 331.808 1883.52 310.323 1862.79 C 306.584 1866.87 302.342 1870.77 298.334 1874.61 C 296.542 1874.66 294.748 1874.6 292.964 1874.43 C 277.149 1873.02 268.737 1869.81 258.701 1857.66 C 259.593 1838.36 256.432 1847.63 244.428 1835.42 C 243.953 1829.51 244.245 1822.48 244.335 1816.44 C 238.594 1816.42 233.327 1815.86 227.619 1815.34 C 223.26 1810.88 216.823 1801.61 209.753 1804.56 L 208.33 1811.44 L 207.374 1811.91 C 203.79 1805.42 202.654 1799.44 198.899 1793.55 C 194.116 1791.88 189.319 1790.26 184.507 1788.69 C 172.701 1799.14 172.104 1818.03 158.043 1829.17 C 149.803 1835.7 131.695 1840.34 129.413 1849.28 C 131.199 1858.06 136.87 1857.01 141.888 1862.09 C 154.115 1875.35 160.515 1879.05 177.987 1883.64 C 270.283 1907.87 232.358 2040.65 139.549 2011.06 C 118.655 2004.4 99.9046 2000.49 81.0968 1986.43 C 75.7313 1982.42 64.7524 1977.5 59.7723 1971.56 C 46.0069 1949.14 22.9423 1940.28 9.82528 1918.1 C 3.5961 1907.56 5.14021 1882.72 0 1875.88 L 0 1773.02 C 6.67128 1764.71 0.949913 1733.6 3.8032 1720.15 C 5.37935 1706.71 14.0273 1693.23 17.2142 1681.01 C 22.7553 1659.78 24.8573 1651.59 37.9625 1633.4 C 39.6149 1587.24 36.8726 1540.48 38.7933 1494.28 C 39.2854 1476.64 52.0371 1456.54 52.7562 1439.82 C 54.3088 1403.73 51.4233 1367.87 58.5808 1332.24 C 59.6949 1326.7 59.4705 1320.33 60.8375 1314.48 C 61.5254 1311.64 62.4366 1308.87 63.5627 1306.18 C 66.3164 1299.71 72.7593 1290.68 75.0364 1284.57 C 79.4098 1272.85 81.5127 1260.61 87.0412 1249.05 C 90.899 1240.99 100.658 1230.9 102.198 1222.56 C 103.871 1213.5 104.953 1203.88 106.78 1194.73 C 108.569 1185.76 112.397 1175.69 113.601 1166.78 C 115.254 1154.56 117.257 1142.39 119.241 1130.21 C 120.266 1123.92 120.701 1113.22 122.161 1107.71 C 125.177 1096.33 128.913 1086.72 131.628 1074.9 C 134.061 1064.32 134.376 1049.83 137.304 1040.45 C 139.597 1033.1 145.778 1019.83 149.005 1012.28 C 157.085 993.364 163.68 972.937 174.798 955.697 C 181.397 945.463 201.556 927.655 204.635 917.405 C 211.303 895.212 208.487 874.735 214.583 850.384 C 195.852 823.043 200.412 809.095 200.023 777.338 C 199.64 751.919 198.621 725.571 212.005 702.71 C 219.105 690.584 227.284 677.274 234.076 664.818 C 238.432 659.461 245.754 654.593 250.435 649.781 C 264.971 634.838 273.789 627.079 281.626 607.724 C 290.923 584.764 315.364 572.546 339.494 570.299 C 365.645 543.733 390.464 537.492 426.404 534.372 C 453.289 532.038 450.425 528.093 479.513 534.626 C 480.241 517.473 496.422 489.04 502.061 472.039 C 506.87 457.539 512.297 442.241 517.991 428.288 C 540.461 373.231 587.968 337.993 640.298 313.566 C 662.229 302.98 697.982 294.069 716.514 282.504 L 717.66 281.777 C 720.284 253.931 709.096 216.694 718.735 188.765 C 729.536 157.468 742.474 118.452 758.079 89.572 C 765.925 75.0523 806.393 33.295 820.206 24.0574 C 831.674 16.4328 844.484 11.0508 857.956 8.19635 C 868.03 5.98699 877.851 4.53631 888.09 3.3518 C 895.501 2.49442 907.639 4.41282 913.382 0 z"/>
  </svg>
</svg>
