<svg xmlns="http://www.w3.org/2000/svg" viewBox="0 0 686 696">
  <path id="silhouette" d="M 281,0 L 282,1 L 282,2 L 281,3 L 282,2 L 283,1 L 284,2 L 284,3 L 284,2 L 284,1 L 285,0 L 286,1 L 287,2 L 288,2 L 289,3 L 288,4 L 287,4 L 286,4 L 285,5 L 284,5 L 283,5 L 282,5 L 282,6 L 281,7 L 280,7 L 279,8 L 278,8 L 277,8 L 277,9 L 276,10 L 275,11 L 274,12 L 273,12 L 272,11 L 271,10 L 270,10 L 269,10 L 268,9 L 269,8 L 268,9 L 267,9 L 266,9 L 265,10 L 265,11 L 264,12 L 264,13 L 264,12 L 265,11 L 265,10 L 266,9 L 267,9 L 268,9 L 269,10 L 270,10 L 271,10 L 272,11 L 271,12 L 270,12 L 269,13 L 269,14 L 268,15 L 267,16 L 266,15 L 266,14 L 266,15 L 265,16 L 264,15 L 265,16 L 265,17 L 265,16 L 266,15 L 267,16 L 268,15 L 269,16 L 269,17 L 268,18 L 267,19 L 266,20 L 265,20 L 264,19 L 263,18 L 262,18 L 261,18 L 260,17 L 261,16 L 260,17 L 259,17 L 258,17 L 257,18 L 257,19 L 256,20 L 256,21 L 256,20 L 257,19 L 257,18 L 258,17 L 259,17 L 260,17 L 261,18 L 262,18 L 263,18 L 264,19 L 263,20 L 262,20 L 261,21 L 261,22 L 260,23 L 259,24 L 258,23 L 258,22 L 258,23 L 257,24 L 256,23 L 257,24 L 256,25 L 257,26 L 256,27 L 257,28 L 258,29 L 258,30 L 257,31 L 256,30 L 257,31 L 256,32 L 256,33 L 255,34 L 255,35 L 255,36 L 254,37 L 253,37 L 252,36 L 251,36 L 250,36 L 249,36 L 248,35 L 249,36 L 248,37 L 249,36 L 250,36 L 251,36 L 252,36 L 253,37 L 252,38 L 251,38 L 252,38 L 253,39 L 252,40 L 251,41 L 251,42 L 250,43 L 249,44 L 250,43 L 251,44 L 251,45 L 250,46 L 250,47 L 250,48 L 249,49 L 248,49 L 247,50 L 246,50 L 245,50 L 244,49 L 245,48 L 244,49 L 243,49 L 242,49 L 241,50 L 241,51 L 240,52 L 240,53 L 240,52 L 241,51 L 241,50 L 242,49 L 243,49 L 244,49 L 245,50 L 246,50 L 247,50 L 248,51 L 247,52 L 246,52 L 245,53 L 245,54 L 244,55 L 243,56 L 242,55 L 242,54 L 242,55 L 243,56 L 242,57 L 242,58 L 241,59 L 240,60 L 241,59 L 242,58 L 242,57 L 243,56 L 244,55 L 245,54 L 246,55 L 247,56 L 246,57 L 245,57 L 244,58 L 244,59 L 243,60 L 244,61 L 245,62 L 244,63 L 244,64 L 243,65 L 242,64 L 241,63 L 242,62 L 241,63 L 240,62 L 241,63 L 241,64 L 240,65 L 241,66 L 240,67 L 241,66 L 240,65 L 241,64 L 242,64 L 243,65 L 244,66 L 244,67 L 243,68 L 243,69 L 243,70 L 243,71 L 243,72 L 243,73 L 243,74 L 243,75 L 243,76 L 243,77 L 243,78 L 243,79 L 242,80 L 242,81 L 241,82 L 240,83 L 241,82 L 242,81 L 243,82 L 243,83 L 243,84 L 243,85 L 242,86 L 241,87 L 240,86 L 241,87 L 242,86 L 243,86 L 244,87 L 244,88 L 244,89 L 244,90 L 244,91 L 244,92 L 244,93 L 244,94 L 244,95 L 243,96 L 242,97 L 241,97 L 240,96 L 239,97 L 238,96 L 237,97 L 236,96 L 237,97 L 238,96 L 239,97 L 239,98 L 238,99 L 237,99 L 236,99 L 235,98 L 236,99 L 235,100 L 234,100 L 233,100 L 232,100 L 231,100 L 230,99 L 230,98 L 231,97 L 232,98 L 233,98 L 232,98 L 231,97 L 230,96 L 229,96 L 230,96 L 231,97 L 230,98 L 229,98 L 228,98 L 227,97 L 226,97 L 225,96 L 226,97 L 227,97 L 228,98 L 229,98 L 230,99 L 231,100 L 230,101 L 229,102 L 228,102 L 227,101 L 228,100 L 227,100 L 226,101 L 225,101 L 224,101 L 225,101 L 226,102 L 225,103 L 224,104 L 223,104 L 222,105 L 221,105 L 220,105 L 219,106 L 218,106 L 217,105 L 218,104 L 217,105 L 216,106 L 215,106 L 214,107 L 213,108 L 212,109 L 211,110 L 210,110 L 209,110 L 208,109 L 209,108 L 208,107 L 208,106 L 209,105 L 208,106 L 208,107 L 209,108 L 208,109 L 209,110 L 208,111 L 207,112 L 206,112 L 205,113 L 204,114 L 203,115 L 202,115 L 201,115 L 200,114 L 201,113 L 202,113 L 203,112 L 202,113 L 201,113 L 200,114 L 199,115 L 198,116 L 197,116 L 196,115 L 196,114 L 197,113 L 198,112 L 197,113 L 196,114 L 195,115 L 194,114 L 194,115 L 195,115 L 196,115 L 197,116 L 196,117 L 197,116 L 198,116 L 199,117 L 198,118 L 197,119 L 196,119 L 195,119 L 194,119 L 193,118 L 194,117 L 193,118 L 192,117 L 193,118 L 192,119 L 192,120 L 192,119 L 193,118 L 194,119 L 195,120 L 194,121 L 193,122 L 192,122 L 192,123 L 191,124 L 190,125 L 189,125 L 189,126 L 188,127 L 187,128 L 186,129 L 185,130 L 184,130 L 183,130 L 182,129 L 183,128 L 184,128 L 183,128 L 182,129 L 181,130 L 180,129 L 179,128 L 180,129 L 181,130 L 182,129 L 183,130 L 184,131 L 183,132 L 183,133 L 182,134 L 181,133 L 181,132 L 180,133 L 179,133 L 178,132 L 177,133 L 176,134 L 177,135 L 176,136 L 177,135 L 177,134 L 177,133 L 178,132 L 179,133 L 180,133 L 181,133 L 182,134 L 181,135 L 180,136 L 179,137 L 178,137 L 179,137 L 180,138 L 179,139 L 179,140 L 178,141 L 177,142 L 176,141 L 177,142 L 176,143 L 177,144 L 176,145 L 175,145 L 174,146 L 175,147 L 175,148 L 174,149 L 173,149 L 172,148 L 172,147 L 171,148 L 170,149 L 169,150 L 168,149 L 169,150 L 168,151 L 169,150 L 170,150 L 171,151 L 170,152 L 171,151 L 172,152 L 173,153 L 173,154 L 172,155 L 171,154 L 170,154 L 169,154 L 168,153 L 169,154 L 168,155 L 169,154 L 170,154 L 171,154 L 172,155 L 171,156 L 171,157 L 171,158 L 171,159 L 171,160 L 170,161 L 170,162 L 169,163 L 168,164 L 169,165 L 168,166 L 168,167 L 167,168 L 166,168 L 166,169 L 165,170 L 164,170 L 163,169 L 164,168 L 163,169 L 162,169 L 161,168 L 160,169 L 161,168 L 162,169 L 163,169 L 164,170 L 163,171 L 164,172 L 165,173 L 164,174 L 165,175 L 164,176 L 163,176 L 162,177 L 161,176 L 161,175 L 161,176 L 160,177 L 159,176 L 160,177 L 160,178 L 161,179 L 161,180 L 160,181 L 159,181 L 158,181 L 157,180 L 158,179 L 158,178 L 157,177 L 156,178 L 155,177 L 154,176 L 153,177 L 152,178 L 151,179 L 152,180 L 151,181 L 150,181 L 149,180 L 148,181 L 147,181 L 146,180 L 145,179 L 145,178 L 145,179 L 144,180 L 145,181 L 144,182 L 143,182 L 142,182 L 141,182 L 140,182 L 139,182 L 138,182 L 137,182 L 136,182 L 135,181 L 134,180 L 135,179 L 134,179 L 134,180 L 135,181 L 136,182 L 135,183 L 134,183 L 133,183 L 132,182 L 131,181 L 132,182 L 132,183 L 131,184 L 130,184 L 129,184 L 128,185 L 127,186 L 126,186 L 125,185 L 124,184 L 125,185 L 124,186 L 123,187 L 122,187 L 121,186 L 122,185 L 121,184 L 120,185 L 119,185 L 118,184 L 119,185 L 118,186 L 117,186 L 118,186 L 119,187 L 118,188 L 117,189 L 116,190 L 115,189 L 114,190 L 113,189 L 112,190 L 113,189 L 114,190 L 115,191 L 116,190 L 117,190 L 118,191 L 117,192 L 116,193 L 115,194 L 114,193 L 113,192 L 114,193 L 113,194 L 112,194 L 111,194 L 110,193 L 110,194 L 109,195 L 108,195 L 107,194 L 108,193 L 107,194 L 106,193 L 105,193 L 104,194 L 103,194 L 102,193 L 101,194 L 100,195 L 101,196 L 100,195 L 101,194 L 102,193 L 103,194 L 104,194 L 105,195 L 104,196 L 103,196 L 104,197 L 103,198 L 102,198 L 101,199 L 100,198 L 99,197 L 98,196 L 98,195 L 98,196 L 99,197 L 100,198 L 99,199 L 98,199 L 97,198 L 96,198 L 97,198 L 98,199 L 99,199 L 100,200 L 99,201 L 98,202 L 97,203 L 97,204 L 96,205 L 95,204 L 94,204 L 93,205 L 93,206 L 92,207 L 93,206 L 94,207 L 94,208 L 95,209 L 94,210 L 94,211 L 93,212 L 92,213 L 91,214 L 90,215 L 89,214 L 90,215 L 89,216 L 88,217 L 87,216 L 86,217 L 85,218 L 84,219 L 85,220 L 85,221 L 84,222 L 83,223 L 82,223 L 81,222 L 82,223 L 81,224 L 80,225 L 79,226 L 78,226 L 77,227 L 76,228 L 75,227 L 74,226 L 75,225 L 76,224 L 75,225 L 74,226 L 73,225 L 72,224 L 73,225 L 74,226 L 73,227 L 72,227 L 73,228 L 72,229 L 73,230 L 72,231 L 73,230 L 74,229 L 75,230 L 76,230 L 77,231 L 76,232 L 75,233 L 74,232 L 75,233 L 75,234 L 74,235 L 73,234 L 74,235 L 73,236 L 72,236 L 73,237 L 72,238 L 72,239 L 71,240 L 70,240 L 70,241 L 69,242 L 68,242 L 67,241 L 68,240 L 67,241 L 66,241 L 65,240 L 64,241 L 65,240 L 66,241 L 67,241 L 68,242 L 67,243 L 68,244 L 69,245 L 68,246 L 69,247 L 69,248 L 68,249 L 67,249 L 66,249 L 67,249 L 68,250 L 67,251 L 66,251 L 65,251 L 64,252 L 64,253 L 65,254 L 64,255 L 65,254 L 66,254 L 65,254 L 64,253 L 64,252 L 65,251 L 66,251 L 67,252 L 68,253 L 68,254 L 68,255 L 68,256 L 68,257 L 68,258 L 68,259 L 68,260 L 68,261 L 68,262 L 68,263 L 68,264 L 68,265 L 68,266 L 68,267 L 68,268 L 68,269 L 68,270 L 68,271 L 68,272 L 68,273 L 68,274 L 68,275 L 68,276 L 68,277 L 68,278 L 68,279 L 68,280 L 67,281 L 66,282 L 65,283 L 64,283 L 65,284 L 64,285 L 65,286 L 64,287 L 65,286 L 66,287 L 65,286 L 64,285 L 65,284 L 66,284 L 67,285 L 66,284 L 65,283 L 66,282 L 67,281 L 68,280 L 69,281 L 69,282 L 68,283 L 69,282 L 70,283 L 70,284 L 71,285 L 70,286 L 70,287 L 71,286 L 72,287 L 73,288 L 72,289 L 73,290 L 72,291 L 72,292 L 72,293 L 72,294 L 72,295 L 72,296 L 71,297 L 70,296 L 71,297 L 71,298 L 70,299 L 69,298 L 68,297 L 67,296 L 67,297 L 68,297 L 69,298 L 68,299 L 67,300 L 68,301 L 69,302 L 68,301 L 69,300 L 70,299 L 71,300 L 71,301 L 71,302 L 71,303 L 71,304 L 70,305 L 70,306 L 71,307 L 70,308 L 70,309 L 70,310 L 70,311 L 69,312 L 69,313 L 68,314 L 67,315 L 66,315 L 65,315 L 64,316 L 65,315 L 66,315 L 67,316 L 66,317 L 65,318 L 64,318 L 64,319 L 63,320 L 62,321 L 61,322 L 60,321 L 60,320 L 60,321 L 59,322 L 58,321 L 59,322 L 60,322 L 61,323 L 60,324 L 59,325 L 58,326 L 58,327 L 57,328 L 56,327 L 57,328 L 56,329 L 56,330 L 56,331 L 55,332 L 54,332 L 55,333 L 54,334 L 53,334 L 52,333 L 53,334 L 54,334 L 55,335 L 54,336 L 53,337 L 52,336 L 51,335 L 51,336 L 52,336 L 53,337 L 52,338 L 52,339 L 51,340 L 50,340 L 49,339 L 50,340 L 51,340 L 52,341 L 51,342 L 51,343 L 51,344 L 50,345 L 49,346 L 48,347 L 47,346 L 46,346 L 45,346 L 44,345 L 45,344 L 44,345 L 43,345 L 42,345 L 41,346 L 41,347 L 40,348 L 40,349 L 40,348 L 41,347 L 41,346 L 42,345 L 43,345 L 44,345 L 45,346 L 46,346 L 47,346 L 48,347 L 47,348 L 46,348 L 45,349 L 45,350 L 44,351 L 43,352 L 42,351 L 42,350 L 42,351 L 43,352 L 44,351 L 45,352 L 46,353 L 45,354 L 44,354 L 43,354 L 44,354 L 45,354 L 46,355 L 46,356 L 45,357 L 46,358 L 46,359 L 46,360 L 45,361 L 45,362 L 44,363 L 43,363 L 42,362 L 41,363 L 40,362 L 41,363 L 40,364 L 41,365 L 40,364 L 41,363 L 42,362 L 43,363 L 44,363 L 45,364 L 44,365 L 43,365 L 43,366 L 44,367 L 44,368 L 43,369 L 42,369 L 41,368 L 40,369 L 41,368 L 42,369 L 42,370 L 43,371 L 43,372 L 42,373 L 41,372 L 40,372 L 41,372 L 42,373 L 41,374 L 42,375 L 41,376 L 41,377 L 41,378 L 41,379 L 41,380 L 41,381 L 41,382 L 41,383 L 41,384 L 40,385 L 39,385 L 38,385 L 37,384 L 38,385 L 39,385 L 40,386 L 39,387 L 38,387 L 37,388 L 36,388 L 36,389 L 35,390 L 34,390 L 33,390 L 32,391 L 33,392 L 32,391 L 33,390 L 34,390 L 35,391 L 35,390 L 36,389 L 37,389 L 38,390 L 37,391 L 37,392 L 37,393 L 38,393 L 39,394 L 39,395 L 39,396 L 38,397 L 37,398 L 36,398 L 37,398 L 38,399 L 38,400 L 37,401 L 36,400 L 35,401 L 34,400 L 33,399 L 34,400 L 34,401 L 35,402 L 34,403 L 33,404 L 32,405 L 33,406 L 33,407 L 32,408 L 33,409 L 32,410 L 33,411 L 34,411 L 35,412 L 35,413 L 34,414 L 33,413 L 34,414 L 34,415 L 35,416 L 34,417 L 33,418 L 33,419 L 32,420 L 31,419 L 32,420 L 31,421 L 30,421 L 29,421 L 28,422 L 27,422 L 26,422 L 25,423 L 26,422 L 27,422 L 28,422 L 29,421 L 30,421 L 31,422 L 30,423 L 30,424 L 29,425 L 28,424 L 27,424 L 28,424 L 29,425 L 28,426 L 28,427 L 27,428 L 26,428 L 25,427 L 26,428 L 27,428 L 28,429 L 27,430 L 27,431 L 27,432 L 27,433 L 26,434 L 26,435 L 25,436 L 25,437 L 24,438 L 24,439 L 23,440 L 22,441 L 21,442 L 22,443 L 21,444 L 20,444 L 19,443 L 18,443 L 17,442 L 18,441 L 19,441 L 19,440 L 18,440 L 18,441 L 17,442 L 16,441 L 16,440 L 16,441 L 17,442 L 18,443 L 17,444 L 18,443 L 19,443 L 20,444 L 19,445 L 20,445 L 21,446 L 20,447 L 20,448 L 20,449 L 20,450 L 20,451 L 20,452 L 20,453 L 20,454 L 20,455 L 20,456 L 19,457 L 18,456 L 17,457 L 16,456 L 17,457 L 16,458 L 17,459 L 17,460 L 16,461 L 16,462 L 17,463 L 18,464 L 17,465 L 17,466 L 18,467 L 17,468 L 18,469 L 18,470 L 19,471 L 18,472 L 18,473 L 18,474 L 18,475 L 18,476 L 18,477 L 18,478 L 18,479 L 18,480 L 18,481 L 18,482 L 18,483 L 18,484 L 18,485 L 18,486 L 18,487 L 17,488 L 17,489 L 18,490 L 18,491 L 17,492 L 16,491 L 17,492 L 16,493 L 17,494 L 16,495 L 16,496 L 16,497 L 15,498 L 14,497 L 14,496 L 14,497 L 13,498 L 12,498 L 11,497 L 12,496 L 11,497 L 10,496 L 11,497 L 10,498 L 11,497 L 12,498 L 13,499 L 14,500 L 15,501 L 14,502 L 13,502 L 12,501 L 13,502 L 14,503 L 14,504 L 13,505 L 12,504 L 11,505 L 10,505 L 9,505 L 8,506 L 9,505 L 10,505 L 11,505 L 12,506 L 13,507 L 13,508 L 12,509 L 13,510 L 13,511 L 13,512 L 13,513 L 13,514 L 13,515 L 13,516 L 13,517 L 13,518 L 13,519 L 13,520 L 13,521 L 13,522 L 13,523 L 13,524 L 13,525 L 13,526 L 13,527 L 13,528 L 13,529 L 13,530 L 13,531 L 13,532 L 13,533 L 13,534 L 13,535 L 13,536 L 13,537 L 13,538 L 13,539 L 13,540 L 13,541 L 13,542 L 13,543 L 13,544 L 13,545 L 13,546 L 13,547 L 13,548 L 13,549 L 13,550 L 13,551 L 13,552 L 12,553 L 13,554 L 13,555 L 12,556 L 11,555 L 12,556 L 11,557 L 11,558 L 10,559 L 9,560 L 8,561 L 7,560 L 7,561 L 8,562 L 8,563 L 7,564 L 6,563 L 5,563 L 6,563 L 7,564 L 6,565 L 5,565 L 6,565 L 7,566 L 7,567 L 7,568 L 7,569 L 6,570 L 5,569 L 4,569 L 3,568 L 2,567 L 3,566 L 2,566 L 2,567 L 3,568 L 2,569 L 1,570 L 0,570 L 1,570 L 2,569 L 3,570 L 4,571 L 3,572 L 4,571 L 3,570 L 4,569 L 5,569 L 6,570 L 6,571 L 6,572 L 5,573 L 5,574 L 4,575 L 3,574 L 4,575 L 4,576 L 3,577 L 2,576 L 2,577 L 3,578 L 3,579 L 2,580 L 1,579 L 0,578 L 1,579 L 2,580 L 1,581 L 0,582 L 0,583 L 1,584 L 1,585 L 1,586 L 1,587 L 1,588 L 1,589 L 1,590 L 1,591 L 1,592 L 1,593 L 1,594 L 1,595 L 1,596 L 1,597 L 1,598 L 1,599 L 1,600 L 0,601 L 0,602 L 0,603 L 0,604 L 0,605 L 0,606 L 0,607 L 0,608 L 0,609 L 0,610 L 0,611 L 0,612 L 0,613 L 0,614 L 0,615 L 0,616 L 0,617 L 0,618 L 0,619 L 0,620 L 0,621 L 0,622 L 0,623 L 0,624 L 0,625 L 0,626 L 0,627 L 0,628 L 0,629 L 0,630 L 0,631 L 0,632 L 0,633 L 0,634 L 0,635 L 0,636 L 0,637 L 0,638 L 1,639 L 1,640 L 0,641 L 1,642 L 1,643 L 0,644 L 1,645 L 0,646 L 1,645 L 2,646 L 2,647 L 2,648 L 3,649 L 2,650 L 3,651 L 4,652 L 3,653 L 2,653 L 1,653 L 0,654 L 1,653 L 2,653 L 3,653 L 4,653 L 5,654 L 5,655 L 4,656 L 3,655 L 2,655 L 2,656 L 2,657 L 2,656 L 3,655 L 4,656 L 5,657 L 5,658 L 6,659 L 7,659 L 8,658 L 9,659 L 9,660 L 9,661 L 8,662 L 7,661 L 6,661 L 5,661 L 4,662 L 3,662 L 2,662 L 1,661 L 1,660 L 0,659 L 0,658 L 0,659 L 1,660 L 1,661 L 2,662 L 3,662 L 4,662 L 5,663 L 4,662 L 5,661 L 6,661 L 7,661 L 8,662 L 9,661 L 9,660 L 10,659 L 11,660 L 12,660 L 13,661 L 12,662 L 13,662 L 14,663 L 15,663 L 16,664 L 16,665 L 17,666 L 16,667 L 17,666 L 18,667 L 18,668 L 17,669 L 16,669 L 17,669 L 18,669 L 19,668 L 20,669 L 20,670 L 20,671 L 20,672 L 21,673 L 21,674 L 22,675 L 23,675 L 24,676 L 23,677 L 22,677 L 21,677 L 20,678 L 19,678 L 18,678 L 17,677 L 17,676 L 16,675 L 16,674 L 16,675 L 17,676 L 17,677 L 18,678 L 19,678 L 20,678 L 21,679 L 20,678 L 21,677 L 22,677 L 23,677 L 24,677 L 24,676 L 25,675 L 26,676 L 27,676 L 28,677 L 27,678 L 26,678 L 27,678 L 28,677 L 29,678 L 30,679 L 31,678 L 32,679 L 33,680 L 32,679 L 33,678 L 34,678 L 35,679 L 36,679 L 37,679 L 38,680 L 38,681 L 37,682 L 37,683 L 37,682 L 38,681 L 39,680 L 40,681 L 41,681 L 42,681 L 43,681 L 44,682 L 43,683 L 42,684 L 41,683 L 40,683 L 39,683 L 40,683 L 41,683 L 42,684 L 43,685 L 44,685 L 45,686 L 44,687 L 45,686 L 44,685 L 43,685 L 42,684 L 43,683 L 44,683 L 45,682 L 46,682 L 47,682 L 48,683 L 49,684 L 48,685 L 47,686 L 48,685 L 49,684 L 50,685 L 51,686 L 50,687 L 51,686 L 50,685 L 50,684 L 51,683 L 52,684 L 53,685 L 53,686 L 53,685 L 54,684 L 55,684 L 56,684 L 57,684 L 58,685 L 58,686 L 58,685 L 59,684 L 60,683 L 61,684 L 61,685 L 60,686 L 61,687 L 60,686 L 61,685 L 62,684 L 63,685 L 62,684 L 63,683 L 64,683 L 65,684 L 65,685 L 66,686 L 67,687 L 68,686 L 69,687 L 68,686 L 69,685 L 70,685 L 71,686 L 70,685 L 70,684 L 71,683 L 70,684 L 69,683 L 70,684 L 69,685 L 68,686 L 67,685 L 67,684 L 67,683 L 66,683 L 65,682 L 66,681 L 67,681 L 68,680 L 69,680 L 70,679 L 71,678 L 72,679 L 71,678 L 72,677 L 73,677 L 74,676 L 74,675 L 75,674 L 76,675 L 76,676 L 76,677 L 75,678 L 74,679 L 75,678 L 76,677 L 76,676 L 76,675 L 77,674 L 78,675 L 79,676 L 78,675 L 77,674 L 78,673 L 79,672 L 78,673 L 77,672 L 77,671 L 78,670 L 77,669 L 78,668 L 77,667 L 78,666 L 79,665 L 79,664 L 79,665 L 78,666 L 77,665 L 77,664 L 77,663 L 78,662 L 78,661 L 78,660 L 77,659 L 78,658 L 79,657 L 78,656 L 78,655 L 79,654 L 78,655 L 77,655 L 76,654 L 77,653 L 76,653 L 75,652 L 75,651 L 76,650 L 75,651 L 74,650 L 74,649 L 73,648 L 73,647 L 74,646 L 75,647 L 76,648 L 77,647 L 77,646 L 77,647 L 76,648 L 75,647 L 74,646 L 74,645 L 73,644 L 72,644 L 71,645 L 70,644 L 69,643 L 68,643 L 67,642 L 66,642 L 65,641 L 64,641 L 63,641 L 62,640 L 62,639 L 61,640 L 60,640 L 59,640 L 58,640 L 57,639 L 57,638 L 58,637 L 58,636 L 58,637 L 57,638 L 56,639 L 55,639 L 54,638 L 55,637 L 56,636 L 55,635 L 56,634 L 57,634 L 56,634 L 55,635 L 54,636 L 55,637 L 54,638 L 53,638 L 52,637 L 51,636 L 52,635 L 52,634 L 52,633 L 53,632 L 54,633 L 55,632 L 55,631 L 55,632 L 54,633 L 53,632 L 52,633 L 51,633 L 52,634 L 52,635 L 51,636 L 50,635 L 49,634 L 48,633 L 47,632 L 46,632 L 45,631 L 44,630 L 44,629 L 43,628 L 44,627 L 45,627 L 44,627 L 43,626 L 44,625 L 45,625 L 46,625 L 47,624 L 48,625 L 49,626 L 48,627 L 47,627 L 48,627 L 49,627 L 50,626 L 50,625 L 51,624 L 50,623 L 51,622 L 52,621 L 53,621 L 54,621 L 55,621 L 56,622 L 55,623 L 55,624 L 55,623 L 56,622 L 57,623 L 56,622 L 57,621 L 58,621 L 57,621 L 56,620 L 57,619 L 58,618 L 59,617 L 60,618 L 61,617 L 62,618 L 63,617 L 62,618 L 61,617 L 60,616 L 61,615 L 60,616 L 59,615 L 58,614 L 58,613 L 59,612 L 60,611 L 61,611 L 62,610 L 61,611 L 60,611 L 59,610 L 60,609 L 61,608 L 62,607 L 63,607 L 64,607 L 65,608 L 64,609 L 65,608 L 66,608 L 67,609 L 66,610 L 65,611 L 64,612 L 63,612 L 62,613 L 61,613 L 62,613 L 63,612 L 64,613 L 64,612 L 65,611 L 66,612 L 66,613 L 66,614 L 67,613 L 68,614 L 69,615 L 70,615 L 71,614 L 72,615 L 71,614 L 70,613 L 71,612 L 72,612 L 73,613 L 74,614 L 73,613 L 74,612 L 75,612 L 76,612 L 77,612 L 78,612 L 79,611 L 80,611 L 81,611 L 82,611 L 83,611 L 84,611 L 85,611 L 86,611 L 87,611 L 88,612 L 89,611 L 90,612 L 90,613 L 91,612 L 92,613 L 93,612 L 94,611 L 95,612 L 94,611 L 95,610 L 96,610 L 97,611 L 98,612 L 97,613 L 98,613 L 99,614 L 99,615 L 100,615 L 99,614 L 100,613 L 101,613 L 102,614 L 102,615 L 103,614 L 103,613 L 102,612 L 103,611 L 102,610 L 103,609 L 104,609 L 105,609 L 106,609 L 107,609 L 108,609 L 109,609 L 110,609 L 111,609 L 112,609 L 113,610 L 112,611 L 113,611 L 114,612 L 113,611 L 113,610 L 114,609 L 113,608 L 113,607 L 113,606 L 113,605 L 113,604 L 113,603 L 113,602 L 113,601 L 113,600 L 114,599 L 113,598 L 114,597 L 115,596 L 116,595 L 115,595 L 114,594 L 115,593 L 116,592 L 115,593 L 114,592 L 113,592 L 112,593 L 111,592 L 111,591 L 111,590 L 110,589 L 111,588 L 110,587 L 109,586 L 109,585 L 108,584 L 108,583 L 108,582 L 107,581 L 106,580 L 107,579 L 108,578 L 109,578 L 110,579 L 109,580 L 110,580 L 111,581 L 110,582 L 111,581 L 110,580 L 110,579 L 111,578 L 110,579 L 109,578 L 108,577 L 107,576 L 106,577 L 105,577 L 104,576 L 103,577 L 102,576 L 101,575 L 101,574 L 102,573 L 103,572 L 103,571 L 102,570 L 103,569 L 102,569 L 101,569 L 100,568 L 99,569 L 98,569 L 97,568 L 96,569 L 95,568 L 94,567 L 94,566 L 95,565 L 94,564 L 93,565 L 94,566 L 93,567 L 92,567 L 91,566 L 90,565 L 89,565 L 88,565 L 87,564 L 88,563 L 87,563 L 86,564 L 85,563 L 85,562 L 86,561 L 86,560 L 86,561 L 85,562 L 84,561 L 83,560 L 82,561 L 81,562 L 80,561 L 80,560 L 79,560 L 78,559 L 78,558 L 79,557 L 78,556 L 77,555 L 77,554 L 77,553 L 78,552 L 79,552 L 78,552 L 77,551 L 77,550 L 77,549 L 77,548 L 77,547 L 77,546 L 77,545 L 77,544 L 77,543 L 77,542 L 77,541 L 77,540 L 77,539 L 77,538 L 77,537 L 77,536 L 77,535 L 78,534 L 79,535 L 78,534 L 79,533 L 78,533 L 77,532 L 78,531 L 79,530 L 78,529 L 78,528 L 78,527 L 79,526 L 80,525 L 81,524 L 81,523 L 82,522 L 83,523 L 84,522 L 85,522 L 85,521 L 86,520 L 87,519 L 88,518 L 89,519 L 88,518 L 87,517 L 88,516 L 89,516 L 90,517 L 89,516 L 88,515 L 89,514 L 90,513 L 91,513 L 91,512 L 92,511 L 93,510 L 94,509 L 94,508 L 95,507 L 96,508 L 95,507 L 96,506 L 97,506 L 98,506 L 99,505 L 100,505 L 101,505 L 102,504 L 102,503 L 101,502 L 100,501 L 100,500 L 100,499 L 101,498 L 102,497 L 103,498 L 103,499 L 102,500 L 103,501 L 102,500 L 103,499 L 103,498 L 102,497 L 103,496 L 103,495 L 104,494 L 105,493 L 106,494 L 107,495 L 108,495 L 107,495 L 106,494 L 107,493 L 106,492 L 107,491 L 108,490 L 109,489 L 109,488 L 110,487 L 111,488 L 110,487 L 111,486 L 112,486 L 113,487 L 114,487 L 115,486 L 116,485 L 117,485 L 116,485 L 115,486 L 114,487 L 113,487 L 112,486 L 113,485 L 112,484 L 113,483 L 114,483 L 115,482 L 116,483 L 117,483 L 118,483 L 119,484 L 118,483 L 117,483 L 116,483 L 115,482 L 116,481 L 117,481 L 118,480 L 119,480 L 119,479 L 120,478 L 121,478 L 122,479 L 121,478 L 122,477 L 123,477 L 124,478 L 123,477 L 123,476 L 124,475 L 125,475 L 126,476 L 127,477 L 126,478 L 126,479 L 126,478 L 127,477 L 126,476 L 127,475 L 126,476 L 125,475 L 125,474 L 126,473 L 127,472 L 128,471 L 129,470 L 130,471 L 131,470 L 132,469 L 133,468 L 134,469 L 135,469 L 134,469 L 133,468 L 134,467 L 133,468 L 132,467 L 132,466 L 133,465 L 133,464 L 134,463 L 135,462 L 136,462 L 137,463 L 138,462 L 139,462 L 138,462 L 137,461 L 136,460 L 136,459 L 137,458 L 138,459 L 139,460 L 140,460 L 139,460 L 138,459 L 137,458 L 138,457 L 138,456 L 139,455 L 140,454 L 141,455 L 141,456 L 140,457 L 140,458 L 141,458 L 140,457 L 141,456 L 141,455 L 140,454 L 141,453 L 140,454 L 139,455 L 138,454 L 138,453 L 138,452 L 139,451 L 139,450 L 139,449 L 140,448 L 141,447 L 140,446 L 140,445 L 141,444 L 141,443 L 142,442 L 143,442 L 142,441 L 143,440 L 142,439 L 143,438 L 143,437 L 143,436 L 144,435 L 145,436 L 144,435 L 144,434 L 145,433 L 146,434 L 147,434 L 146,434 L 145,433 L 145,432 L 145,431 L 146,430 L 147,429 L 148,428 L 149,427 L 150,427 L 151,428 L 150,427 L 149,427 L 148,428 L 147,428 L 146,427 L 147,426 L 147,425 L 148,424 L 149,425 L 150,425 L 149,425 L 148,424 L 149,423 L 150,422 L 151,422 L 150,422 L 149,423 L 148,422 L 148,421 L 149,420 L 149,419 L 149,418 L 149,417 L 150,416 L 151,417 L 151,418 L 151,417 L 150,416 L 150,415 L 150,414 L 151,413 L 150,412 L 151,411 L 150,410 L 151,409 L 151,408 L 152,407 L 153,407 L 154,407 L 154,406 L 155,405 L 156,404 L 157,403 L 158,403 L 159,404 L 160,405 L 161,405 L 162,405 L 163,406 L 162,407 L 163,406 L 164,406 L 165,406 L 166,405 L 166,404 L 167,403 L 167,402 L 167,403 L 166,404 L 166,405 L 165,406 L 164,406 L 163,406 L 162,405 L 161,405 L 160,405 L 159,404 L 160,403 L 161,403 L 162,402 L 162,401 L 163,400 L 162,401 L 161,400 L 161,399 L 162,398 L 163,398 L 162,397 L 163,396 L 164,395 L 165,396 L 166,397 L 165,398 L 166,399 L 165,400 L 165,401 L 165,400 L 166,399 L 167,400 L 166,399 L 167,398 L 166,397 L 165,396 L 164,395 L 164,394 L 165,393 L 166,394 L 167,395 L 166,394 L 167,393 L 166,394 L 165,393 L 165,392 L 166,391 L 167,390 L 168,391 L 168,390 L 167,389 L 167,388 L 168,387 L 169,388 L 170,388 L 169,388 L 168,387 L 169,386 L 170,386 L 169,386 L 168,385 L 168,384 L 169,383 L 170,384 L 169,383 L 170,382 L 169,381 L 169,380 L 169,379 L 170,378 L 171,377 L 171,376 L 170,375 L 171,374 L 171,373 L 172,372 L 173,371 L 174,372 L 175,373 L 174,374 L 175,373 L 176,373 L 177,374 L 176,375 L 175,376 L 176,377 L 175,378 L 176,377 L 177,378 L 178,377 L 179,378 L 180,377 L 181,378 L 182,379 L 183,380 L 182,381 L 181,381 L 182,381 L 183,382 L 182,383 L 183,382 L 184,381 L 183,380 L 182,379 L 183,378 L 184,377 L 185,378 L 185,379 L 186,380 L 187,381 L 186,382 L 185,383 L 186,382 L 187,381 L 188,382 L 188,383 L 187,384 L 186,385 L 185,386 L 184,385 L 185,386 L 186,385 L 187,386 L 188,385 L 189,386 L 190,387 L 191,388 L 190,389 L 189,389 L 190,389 L 191,390 L 190,391 L 191,390 L 192,390 L 193,391 L 192,392 L 193,391 L 194,392 L 194,393 L 194,392 L 195,391 L 196,392 L 197,393 L 197,394 L 198,395 L 199,395 L 200,396 L 199,397 L 198,397 L 197,397 L 196,398 L 195,398 L 194,398 L 193,397 L 193,396 L 192,395 L 192,394 L 192,395 L 193,396 L 193,397 L 194,398 L 195,398 L 196,398 L 197,399 L 196,398 L 197,397 L 198,397 L 199,397 L 200,397 L 200,396 L 201,395 L 202,396 L 202,397 L 202,398 L 201,399 L 201,400 L 201,399 L 202,398 L 203,399 L 203,400 L 203,401 L 204,402 L 204,403 L 203,404 L 203,405 L 204,406 L 203,407 L 204,406 L 205,407 L 205,408 L 204,409 L 203,410 L 202,411 L 201,410 L 200,409 L 201,408 L 200,407 L 201,408 L 200,409 L 201,410 L 200,411 L 201,412 L 200,413 L 201,414 L 200,413 L 201,412 L 202,411 L 203,412 L 202,411 L 203,410 L 204,409 L 205,410 L 205,411 L 206,412 L 205,413 L 205,414 L 204,415 L 203,415 L 204,415 L 205,414 L 206,415 L 206,416 L 206,417 L 206,418 L 206,419 L 206,420 L 206,421 L 206,422 L 206,423 L 206,424 L 206,425 L 206,426 L 206,427 L 205,428 L 204,427 L 204,426 L 204,427 L 205,428 L 204,429 L 204,430 L 203,431 L 204,432 L 204,433 L 203,434 L 202,433 L 201,432 L 202,433 L 203,434 L 202,435 L 201,436 L 201,437 L 200,438 L 199,438 L 198,437 L 199,436 L 198,436 L 197,437 L 197,438 L 196,439 L 197,440 L 196,441 L 195,442 L 194,443 L 193,442 L 192,442 L 193,442 L 194,443 L 193,444 L 194,443 L 195,444 L 195,445 L 194,446 L 194,447 L 194,448 L 193,449 L 192,448 L 191,448 L 191,449 L 192,448 L 193,449 L 193,450 L 192,451 L 191,452 L 190,451 L 189,451 L 190,451 L 191,452 L 190,453 L 189,453 L 190,453 L 191,454 L 191,455 L 190,456 L 189,455 L 189,456 L 188,457 L 189,458 L 188,459 L 187,459 L 187,460 L 187,461 L 187,462 L 187,461 L 187,460 L 188,459 L 189,460 L 189,461 L 189,462 L 189,463 L 188,464 L 188,465 L 188,466 L 188,467 L 188,468 L 188,469 L 188,470 L 188,471 L 188,472 L 188,473 L 188,474 L 188,475 L 188,476 L 188,477 L 188,478 L 188,479 L 188,480 L 187,481 L 187,482 L 188,482 L 189,483 L 188,484 L 187,484 L 186,485 L 185,484 L 184,483 L 185,482 L 184,483 L 185,484 L 184,485 L 185,484 L 186,485 L 187,484 L 188,484 L 189,485 L 189,486 L 190,487 L 190,488 L 189,489 L 188,488 L 187,488 L 186,488 L 185,487 L 184,488 L 184,489 L 185,489 L 186,490 L 185,491 L 184,492 L 185,493 L 185,494 L 186,494 L 185,493 L 184,492 L 185,491 L 186,490 L 187,491 L 188,492 L 187,491 L 187,490 L 186,490 L 185,489 L 186,488 L 187,488 L 188,488 L 189,489 L 190,489 L 191,490 L 190,491 L 191,492 L 190,493 L 191,492 L 192,493 L 192,494 L 193,495 L 193,496 L 194,497 L 193,498 L 192,498 L 193,498 L 194,499 L 193,500 L 192,500 L 193,501 L 192,502 L 193,502 L 194,502 L 195,503 L 195,502 L 196,501 L 197,502 L 197,503 L 198,502 L 199,503 L 200,504 L 201,505 L 200,506 L 201,506 L 202,507 L 201,508 L 201,509 L 201,510 L 202,510 L 203,510 L 203,509 L 204,508 L 205,508 L 206,509 L 205,510 L 205,511 L 206,511 L 207,510 L 208,510 L 209,511 L 209,512 L 209,513 L 208,514 L 209,515 L 210,514 L 209,513 L 210,512 L 211,512 L 212,513 L 213,514 L 214,514 L 215,514 L 216,515 L 215,516 L 216,517 L 217,517 L 216,517 L 215,516 L 216,515 L 217,515 L 218,515 L 219,515 L 220,516 L 219,517 L 220,516 L 221,516 L 222,516 L 223,517 L 223,518 L 222,519 L 221,518 L 220,519 L 221,518 L 222,519 L 223,518 L 224,519 L 225,520 L 224,519 L 225,518 L 226,518 L 227,519 L 228,519 L 229,519 L 230,520 L 230,521 L 229,522 L 229,523 L 229,522 L 230,521 L 231,520 L 232,521 L 232,522 L 231,523 L 232,524 L 231,525 L 230,525 L 231,525 L 232,524 L 233,523 L 234,524 L 234,525 L 233,526 L 234,525 L 235,525 L 234,524 L 235,523 L 236,522 L 237,522 L 238,523 L 237,524 L 238,523 L 239,523 L 240,523 L 241,523 L 242,524 L 243,523 L 244,524 L 245,525 L 245,526 L 244,527 L 243,526 L 242,527 L 243,526 L 244,527 L 245,526 L 245,525 L 246,524 L 247,524 L 248,524 L 249,525 L 248,526 L 249,526 L 250,525 L 251,526 L 252,526 L 253,525 L 254,525 L 255,525 L 256,526 L 255,527 L 256,526 L 257,525 L 258,526 L 259,527 L 260,526 L 261,526 L 262,526 L 263,526 L 264,526 L 265,526 L 266,526 L 267,526 L 268,526 L 269,526 L 270,526 L 271,526 L 272,526 L 273,527 L 274,527 L 275,527 L 276,527 L 277,527 L 278,527 L 279,527 L 280,527 L 281,528 L 280,529 L 281,528 L 282,527 L 283,527 L 284,528 L 283,529 L 284,530 L 285,530 L 285,529 L 286,528 L 287,528 L 288,529 L 287,530 L 288,530 L 288,529 L 289,528 L 290,528 L 291,528 L 292,529 L 293,530 L 294,531 L 293,532 L 292,532 L 293,532 L 294,531 L 295,531 L 294,531 L 293,530 L 294,529 L 295,529 L 296,529 L 297,529 L 298,529 L 299,529 L 300,529 L 301,529 L 302,529 L 303,529 L 304,529 L 305,529 L 306,529 L 307,529 L 308,530 L 307,531 L 306,531 L 307,531 L 308,530 L 309,530 L 310,531 L 309,532 L 308,533 L 307,534 L 306,533 L 307,534 L 308,535 L 307,534 L 308,533 L 309,532 L 310,533 L 310,534 L 310,533 L 309,532 L 310,531 L 311,530 L 312,530 L 313,530 L 314,530 L 315,530 L 316,530 L 317,530 L 318,530 L 319,530 L 320,530 L 321,530 L 322,531 L 321,532 L 321,533 L 322,534 L 323,533 L 324,534 L 325,535 L 326,534 L 327,533 L 328,533 L 329,533 L 330,532 L 331,532 L 332,533 L 331,534 L 330,535 L 331,534 L 332,533 L 333,534 L 334,533 L 335,532 L 336,532 L 337,533 L 336,534 L 335,535 L 336,534 L 337,535 L 338,534 L 338,533 L 339,532 L 340,533 L 341,533 L 342,534 L 343,535 L 344,534 L 345,533 L 346,534 L 347,535 L 348,534 L 349,534 L 350,534 L 351,534 L 352,535 L 353,534 L 354,535 L 355,534 L 356,535 L 357,534 L 358,535 L 359,535 L 360,535 L 361,535 L 362,535 L 363,535 L 364,535 L 365,535 L 366,535 L 367,535 L 368,535 L 369,536 L 368,537 L 369,536 L 370,535 L 371,535 L 372,536 L 371,537 L 372,538 L 373,538 L 373,537 L 374,536 L 375,536 L 376,536 L 377,536 L 378,536 L 379,536 L 380,536 L 381,536 L 382,536 L 383,536 L 384,536 L 385,536 L 386,536 L 387,536 L 388,536 L 389,536 L 390,536 L 391,536 L 392,536 L 393,536 L 394,536 L 395,536 L 396,536 L 397,536 L 398,536 L 399,536 L 400,536 L 401,537 L 401,538 L 401,537 L 402,536 L 403,536 L 404,537 L 405,536 L 406,537 L 407,537 L 406,536 L 407,535 L 408,535 L 409,535 L 410,535 L 411,535 L 412,535 L 413,535 L 414,535 L 415,534 L 416,534 L 417,534 L 418,534 L 419,534 L 420,535 L 421,534 L 422,533 L 423,534 L 424,533 L 425,532 L 426,532 L 427,533 L 427,534 L 428,535 L 427,534 L 427,533 L 426,532 L 427,531 L 428,531 L 429,532 L 430,531 L 431,530 L 432,530 L 433,531 L 434,532 L 433,533 L 433,534 L 433,533 L 434,532 L 435,533 L 436,534 L 435,535 L 436,534 L 437,533 L 436,534 L 435,533 L 434,532 L 433,531 L 434,530 L 435,530 L 436,531 L 437,531 L 436,531 L 435,530 L 436,529 L 437,529 L 438,529 L 439,529 L 440,530 L 439,531 L 440,532 L 439,533 L 440,534 L 441,535 L 440,534 L 441,533 L 442,533 L 443,534 L 443,535 L 443,534 L 442,533 L 443,532 L 444,532 L 445,532 L 446,531 L 446,530 L 446,529 L 447,528 L 448,527 L 449,527 L 450,527 L 451,526 L 452,526 L 453,527 L 454,526 L 455,527 L 454,526 L 455,525 L 456,525 L 457,526 L 458,527 L 459,527 L 459,526 L 458,525 L 459,524 L 460,524 L 461,525 L 461,524 L 462,523 L 463,524 L 464,523 L 465,524 L 464,523 L 465,522 L 466,522 L 467,523 L 468,522 L 469,521 L 470,522 L 471,521 L 471,520 L 472,519 L 473,519 L 474,519 L 474,518 L 475,517 L 476,518 L 476,519 L 476,518 L 475,517 L 476,516 L 477,515 L 478,516 L 478,517 L 479,518 L 478,519 L 479,518 L 480,517 L 481,517 L 482,517 L 483,518 L 482,519 L 483,518 L 484,518 L 485,518 L 486,517 L 486,516 L 487,515 L 487,514 L 487,515 L 486,516 L 486,517 L 485,518 L 484,518 L 483,518 L 482,517 L 481,517 L 480,517 L 479,516 L 480,515 L 481,515 L 482,514 L 482,513 L 483,512 L 484,511 L 485,512 L 485,513 L 485,512 L 486,511 L 487,512 L 486,511 L 487,510 L 486,509 L 486,508 L 485,507 L 484,506 L 485,505 L 486,505 L 487,506 L 486,505 L 487,504 L 486,503 L 486,502 L 486,501 L 486,500 L 487,499 L 487,498 L 487,497 L 487,496 L 487,495 L 488,494 L 489,494 L 490,495 L 489,494 L 488,493 L 488,492 L 488,491 L 488,490 L 489,489 L 490,489 L 491,488 L 490,489 L 489,489 L 488,488 L 488,487 L 488,486 L 488,485 L 488,484 L 488,483 L 488,482 L 488,481 L 488,480 L 488,479 L 488,478 L 488,477 L 488,476 L 488,475 L 488,474 L 488,473 L 488,472 L 488,471 L 488,470 L 488,469 L 488,468 L 488,467 L 488,466 L 488,465 L 488,464 L 489,463 L 490,462 L 491,463 L 490,462 L 490,461 L 489,460 L 488,460 L 487,459 L 488,458 L 489,458 L 490,458 L 491,457 L 492,457 L 493,457 L 494,458 L 494,459 L 495,460 L 495,461 L 495,460 L 494,459 L 494,458 L 493,457 L 492,457 L 491,457 L 490,456 L 491,457 L 490,458 L 489,458 L 488,458 L 487,457 L 487,456 L 487,455 L 487,454 L 486,453 L 487,452 L 486,451 L 487,450 L 486,449 L 486,448 L 486,447 L 486,446 L 487,445 L 486,444 L 487,443 L 486,442 L 487,441 L 487,440 L 487,439 L 488,438 L 489,437 L 488,436 L 489,435 L 490,435 L 491,434 L 492,433 L 491,432 L 491,431 L 492,430 L 493,431 L 494,432 L 495,433 L 494,434 L 493,435 L 492,436 L 491,437 L 492,436 L 493,436 L 494,436 L 495,437 L 494,436 L 493,435 L 494,434 L 495,433 L 494,432 L 494,431 L 493,431 L 492,430 L 493,429 L 494,429 L 493,428 L 493,427 L 494,426 L 495,427 L 494,426 L 494,425 L 495,424 L 496,423 L 497,423 L 496,422 L 497,421 L 498,420 L 499,420 L 500,419 L 501,420 L 502,421 L 501,422 L 501,423 L 501,422 L 502,421 L 503,422 L 502,421 L 503,420 L 502,421 L 501,420 L 500,419 L 499,418 L 500,417 L 501,416 L 502,415 L 503,414 L 504,415 L 505,414 L 506,415 L 505,414 L 505,413 L 504,412 L 505,411 L 504,410 L 505,409 L 506,409 L 507,410 L 508,411 L 507,412 L 507,413 L 508,414 L 509,415 L 510,415 L 509,415 L 508,414 L 507,413 L 507,412 L 508,411 L 509,412 L 510,411 L 509,410 L 508,410 L 507,410 L 506,409 L 507,408 L 506,407 L 507,406 L 508,406 L 509,406 L 510,407 L 509,408 L 510,407 L 509,406 L 510,405 L 509,406 L 508,405 L 508,404 L 509,403 L 510,402 L 511,401 L 511,400 L 512,399 L 513,398 L 513,397 L 514,396 L 515,397 L 516,397 L 517,398 L 516,399 L 517,398 L 518,399 L 517,398 L 516,397 L 515,397 L 514,396 L 515,395 L 516,395 L 516,394 L 517,393 L 517,392 L 518,391 L 519,390 L 520,389 L 521,390 L 520,389 L 520,388 L 520,387 L 521,386 L 522,387 L 523,388 L 523,389 L 524,389 L 525,390 L 524,391 L 524,392 L 525,393 L 525,394 L 526,395 L 527,395 L 528,395 L 529,394 L 530,395 L 530,396 L 529,397 L 530,398 L 531,399 L 531,400 L 530,401 L 529,401 L 530,402 L 529,403 L 528,403 L 528,404 L 529,405 L 528,406 L 529,406 L 529,405 L 528,404 L 529,403 L 530,402 L 531,402 L 532,403 L 532,404 L 531,405 L 532,406 L 533,407 L 534,408 L 533,409 L 532,410 L 533,409 L 534,409 L 535,410 L 534,411 L 533,412 L 532,413 L 531,414 L 530,413 L 531,414 L 530,415 L 531,414 L 532,415 L 531,414 L 532,413 L 533,413 L 534,414 L 534,415 L 534,414 L 535,413 L 536,414 L 536,415 L 536,416 L 536,417 L 537,418 L 536,419 L 537,420 L 536,421 L 537,421 L 538,422 L 537,423 L 537,424 L 538,425 L 537,426 L 536,426 L 537,426 L 538,425 L 539,426 L 539,427 L 539,428 L 539,429 L 538,430 L 537,429 L 536,428 L 537,429 L 536,430 L 537,431 L 537,432 L 536,433 L 537,432 L 538,433 L 537,432 L 538,431 L 538,430 L 539,429 L 540,430 L 540,431 L 540,432 L 541,433 L 540,434 L 539,435 L 540,436 L 540,437 L 541,438 L 542,438 L 543,439 L 542,440 L 541,441 L 540,440 L 539,439 L 538,438 L 538,437 L 537,436 L 536,435 L 537,436 L 538,437 L 538,438 L 539,439 L 538,440 L 538,441 L 538,440 L 539,439 L 540,440 L 541,441 L 541,442 L 542,443 L 543,443 L 544,443 L 545,444 L 544,445 L 543,445 L 542,445 L 541,445 L 540,446 L 539,446 L 538,446 L 537,445 L 537,444 L 536,443 L 536,442 L 536,443 L 537,444 L 537,445 L 538,446 L 539,446 L 540,446 L 541,447 L 540,446 L 541,445 L 542,445 L 543,445 L 544,445 L 545,446 L 545,447 L 545,448 L 544,449 L 545,448 L 546,448 L 547,449 L 546,450 L 547,450 L 548,451 L 548,452 L 547,453 L 548,452 L 549,453 L 549,454 L 550,455 L 549,456 L 549,457 L 550,458 L 549,459 L 548,460 L 547,460 L 548,460 L 549,459 L 550,458 L 551,459 L 551,460 L 550,461 L 549,462 L 548,462 L 549,462 L 550,463 L 551,462 L 552,462 L 553,463 L 553,464 L 552,465 L 553,466 L 552,467 L 553,466 L 554,467 L 555,468 L 555,469 L 554,470 L 555,470 L 556,471 L 555,472 L 554,473 L 555,472 L 556,472 L 557,473 L 556,474 L 557,475 L 558,476 L 558,477 L 557,478 L 556,477 L 555,476 L 554,475 L 553,476 L 552,475 L 553,476 L 552,477 L 553,476 L 554,477 L 554,478 L 553,479 L 554,478 L 554,477 L 555,476 L 556,477 L 557,478 L 556,479 L 557,478 L 558,477 L 559,478 L 560,479 L 560,480 L 561,481 L 560,482 L 561,483 L 562,483 L 563,484 L 562,485 L 562,486 L 563,485 L 564,486 L 565,487 L 565,488 L 564,489 L 565,490 L 566,491 L 565,492 L 564,492 L 563,491 L 564,492 L 564,493 L 565,492 L 566,493 L 565,492 L 566,491 L 567,491 L 568,491 L 569,492 L 568,493 L 569,493 L 570,494 L 571,495 L 570,496 L 569,497 L 568,496 L 569,497 L 570,498 L 569,499 L 568,500 L 569,499 L 570,498 L 571,499 L 571,500 L 571,501 L 572,502 L 573,503 L 572,502 L 571,501 L 571,500 L 571,499 L 572,498 L 573,499 L 573,500 L 574,501 L 575,501 L 576,502 L 575,503 L 576,503 L 577,504 L 576,505 L 577,505 L 578,506 L 577,507 L 578,508 L 577,509 L 576,509 L 577,509 L 578,510 L 577,511 L 578,512 L 577,511 L 578,510 L 579,510 L 580,511 L 580,512 L 581,513 L 580,514 L 579,514 L 578,514 L 577,515 L 578,516 L 579,515 L 580,516 L 580,517 L 579,518 L 578,519 L 577,519 L 578,519 L 579,518 L 580,517 L 580,516 L 579,515 L 580,514 L 581,513 L 582,513 L 583,514 L 582,515 L 583,516 L 582,517 L 582,518 L 581,519 L 582,518 L 583,519 L 584,520 L 585,521 L 585,522 L 585,523 L 585,522 L 585,521 L 584,520 L 584,519 L 583,519 L 582,518 L 582,517 L 583,516 L 584,516 L 585,516 L 586,517 L 586,518 L 587,518 L 588,519 L 588,520 L 587,521 L 588,520 L 589,521 L 589,522 L 590,523 L 590,524 L 590,525 L 589,526 L 588,526 L 587,525 L 588,524 L 587,523 L 588,524 L 587,525 L 586,526 L 585,525 L 584,525 L 585,525 L 586,526 L 587,527 L 586,528 L 586,529 L 586,528 L 587,527 L 588,528 L 589,529 L 589,530 L 590,531 L 591,531 L 592,532 L 591,533 L 590,533 L 589,533 L 588,534 L 587,534 L 586,534 L 585,533 L 585,532 L 584,531 L 584,530 L 584,531 L 585,532 L 585,533 L 586,534 L 587,534 L 588,534 L 589,535 L 588,534 L 589,533 L 590,533 L 591,533 L 592,532 L 593,533 L 594,534 L 595,535 L 594,536 L 595,537 L 596,538 L 595,539 L 594,540 L 593,541 L 592,540 L 593,541 L 592,542 L 593,541 L 594,542 L 594,543 L 593,544 L 592,545 L 592,546 L 593,547 L 592,548 L 593,547 L 594,546 L 593,547 L 592,546 L 592,545 L 593,544 L 594,543 L 595,544 L 596,544 L 597,545 L 596,546 L 597,547 L 596,548 L 595,549 L 594,550 L 594,551 L 593,552 L 592,551 L 591,552 L 590,553 L 590,554 L 590,555 L 589,556 L 588,557 L 587,557 L 586,556 L 586,555 L 587,554 L 588,553 L 588,552 L 587,553 L 587,554 L 586,555 L 585,555 L 584,556 L 584,557 L 585,558 L 586,559 L 586,560 L 585,561 L 584,560 L 583,561 L 582,560 L 583,561 L 583,562 L 583,563 L 582,564 L 581,563 L 581,562 L 581,563 L 582,564 L 581,565 L 580,566 L 579,565 L 578,565 L 579,565 L 580,566 L 579,567 L 578,568 L 577,567 L 577,568 L 576,569 L 575,568 L 574,569 L 574,570 L 574,571 L 573,572 L 572,573 L 571,573 L 570,572 L 570,571 L 571,570 L 572,569 L 572,568 L 571,569 L 571,570 L 570,571 L 569,571 L 568,572 L 568,573 L 569,574 L 570,575 L 570,576 L 569,577 L 568,576 L 567,576 L 567,577 L 568,576 L 569,577 L 569,578 L 568,579 L 567,580 L 566,579 L 565,579 L 566,579 L 567,580 L 566,581 L 565,581 L 566,581 L 567,582 L 567,583 L 566,584 L 565,583 L 566,584 L 566,585 L 566,586 L 566,587 L 566,588 L 566,589 L 566,590 L 566,591 L 565,592 L 566,593 L 566,594 L 566,595 L 565,596 L 564,596 L 563,595 L 562,594 L 563,593 L 563,592 L 563,593 L 562,594 L 563,595 L 562,596 L 563,597 L 564,598 L 565,598 L 566,598 L 567,598 L 568,599 L 568,600 L 568,601 L 569,602 L 568,603 L 569,602 L 570,603 L 570,604 L 569,605 L 568,605 L 569,605 L 570,605 L 571,604 L 572,605 L 572,606 L 572,607 L 572,608 L 573,609 L 573,610 L 574,611 L 575,611 L 576,610 L 577,609 L 578,610 L 579,610 L 580,610 L 581,611 L 580,612 L 581,611 L 582,611 L 583,611 L 584,611 L 585,612 L 586,612 L 587,612 L 588,612 L 589,612 L 590,612 L 591,611 L 592,612 L 593,613 L 592,614 L 591,614 L 592,614 L 593,614 L 594,615 L 593,614 L 593,613 L 592,612 L 593,611 L 594,611 L 595,611 L 596,610 L 597,611 L 598,612 L 599,611 L 600,611 L 599,611 L 598,612 L 597,611 L 597,610 L 598,609 L 599,609 L 600,608 L 601,609 L 602,610 L 602,611 L 602,610 L 601,609 L 601,608 L 602,607 L 603,606 L 604,606 L 605,607 L 606,608 L 607,607 L 608,606 L 609,607 L 608,606 L 607,605 L 606,606 L 605,607 L 604,606 L 604,605 L 605,604 L 606,603 L 607,603 L 608,603 L 608,602 L 609,601 L 610,602 L 611,601 L 611,600 L 612,599 L 613,598 L 614,598 L 615,599 L 614,600 L 613,601 L 613,602 L 614,602 L 615,603 L 614,604 L 614,605 L 613,606 L 614,607 L 613,606 L 614,605 L 614,604 L 615,603 L 614,602 L 615,601 L 614,600 L 615,599 L 616,598 L 617,599 L 616,598 L 616,597 L 616,596 L 617,595 L 618,596 L 618,597 L 618,596 L 617,595 L 618,594 L 619,593 L 620,594 L 621,594 L 620,594 L 619,593 L 620,592 L 621,591 L 622,592 L 623,591 L 624,592 L 625,592 L 626,593 L 626,594 L 627,594 L 628,594 L 629,594 L 630,595 L 631,595 L 632,596 L 631,597 L 630,598 L 629,599 L 628,598 L 628,597 L 628,596 L 628,597 L 627,598 L 626,597 L 625,596 L 626,597 L 626,598 L 625,599 L 626,598 L 627,598 L 628,598 L 629,599 L 630,598 L 631,597 L 632,598 L 633,599 L 634,600 L 634,601 L 634,602 L 634,603 L 634,604 L 634,605 L 634,606 L 634,607 L 634,608 L 633,609 L 632,610 L 633,611 L 633,612 L 632,613 L 633,614 L 633,615 L 633,616 L 632,617 L 632,618 L 632,619 L 632,620 L 632,621 L 632,622 L 632,623 L 631,624 L 630,624 L 629,625 L 628,624 L 629,625 L 628,626 L 628,627 L 627,628 L 626,628 L 625,627 L 626,628 L 627,629 L 628,630 L 629,629 L 630,630 L 630,631 L 630,632 L 630,633 L 629,634 L 628,633 L 629,634 L 628,635 L 627,635 L 626,634 L 625,634 L 624,633 L 625,634 L 624,635 L 625,635 L 626,636 L 627,635 L 628,636 L 628,637 L 627,638 L 627,639 L 626,640 L 625,641 L 624,640 L 625,641 L 624,642 L 623,642 L 622,641 L 621,640 L 620,640 L 619,641 L 618,640 L 617,641 L 616,640 L 616,641 L 617,641 L 618,640 L 619,641 L 620,642 L 620,643 L 619,644 L 618,645 L 619,646 L 618,647 L 617,648 L 616,648 L 615,649 L 614,648 L 613,648 L 613,649 L 614,650 L 613,651 L 612,651 L 611,650 L 611,649 L 610,649 L 609,649 L 609,650 L 609,651 L 610,652 L 609,653 L 608,653 L 609,654 L 608,655 L 607,656 L 606,657 L 605,656 L 606,657 L 605,658 L 604,659 L 603,660 L 602,660 L 601,660 L 600,659 L 601,660 L 601,661 L 600,662 L 601,661 L 602,660 L 603,660 L 604,661 L 603,662 L 602,663 L 602,664 L 602,665 L 601,666 L 600,666 L 601,666 L 602,667 L 601,668 L 601,669 L 600,670 L 601,671 L 601,672 L 600,673 L 601,674 L 601,675 L 600,676 L 601,677 L 600,678 L 601,677 L 602,678 L 602,679 L 602,680 L 602,681 L 602,682 L 603,683 L 604,684 L 605,685 L 605,686 L 604,687 L 603,686 L 604,687 L 604,688 L 605,689 L 605,690 L 606,691 L 607,691 L 608,692 L 607,693 L 606,693 L 605,693 L 604,694 L 603,694 L 602,694 L 601,693 L 601,692 L 600,691 L 600,690 L 600,691 L 601,692 L 601,693 L 602,694 L 603,694 L 604,694 L 605,695 L 604,694 L 605,693 L 606,693 L 607,693 L 608,694 L 607,693 L 608,692 L 607,691 L 606,690 L 607,689 L 608,688 L 609,689 L 609,690 L 610,691 L 611,691 L 612,692 L 612,693 L 611,694 L 610,694 L 610,695 L 611,694 L 612,693 L 613,692 L 614,693 L 615,693 L 616,693 L 617,694 L 616,695 L 617,694 L 618,695 L 619,694 L 620,694 L 621,694 L 622,695 L 623,694 L 624,694 L 625,695 L 626,694 L 627,694 L 628,694 L 629,695 L 630,694 L 631,695 L 632,694 L 633,695 L 632,694 L 633,693 L 634,693 L 635,693 L 636,694 L 635,695 L 636,694 L 637,693 L 638,694 L 639,694 L 640,695 L 641,694 L 642,695 L 643,695 L 644,694 L 645,694 L 646,695 L 645,694 L 644,694 L 643,695 L 642,695 L 641,694 L 642,693 L 643,692 L 642,692 L 641,691 L 642,690 L 643,690 L 644,690 L 644,689 L 645,688 L 646,688 L 647,689 L 646,690 L 646,691 L 645,692 L 646,692 L 646,691 L 646,690 L 647,689 L 648,688 L 649,689 L 650,690 L 650,691 L 650,690 L 649,689 L 649,688 L 650,687 L 651,687 L 652,687 L 653,687 L 654,688 L 654,687 L 655,686 L 656,686 L 657,687 L 658,686 L 659,686 L 660,687 L 661,686 L 662,685 L 663,684 L 664,683 L 665,684 L 666,685 L 665,686 L 666,685 L 665,684 L 665,683 L 666,682 L 667,683 L 667,682 L 668,681 L 669,681 L 669,680 L 670,679 L 671,680 L 672,679 L 672,678 L 673,677 L 674,678 L 675,679 L 674,678 L 673,677 L 674,676 L 675,675 L 676,676 L 677,677 L 677,678 L 677,679 L 677,678 L 677,677 L 676,676 L 677,675 L 678,674 L 677,673 L 678,672 L 679,671 L 680,671 L 680,670 L 679,671 L 678,670 L 678,669 L 679,668 L 680,667 L 681,668 L 682,668 L 681,668 L 680,667 L 681,666 L 682,666 L 681,666 L 680,665 L 680,664 L 681,663 L 682,664 L 683,663 L 684,662 L 685,662 L 685,661 L 684,662 L 683,663 L 682,664 L 681,663 L 681,662 L 682,661 L 683,660 L 682,659 L 682,658 L 682,657 L 683,656 L 684,656 L 683,655 L 684,654 L 685,653 L 684,654 L 683,653 L 683,652 L 684,651 L 685,650 L 684,649 L 684,648 L 684,647 L 684,646 L 684,645 L 684,644 L 684,643 L 684,642 L 684,641 L 684,640 L 684,639 L 684,638 L 684,637 L 684,636 L 684,635 L 684,634 L 684,633 L 684,632 L 684,631 L 684,630 L 684,629 L 685,628 L 685,627 L 685,626 L 684,625 L 683,624 L 683,623 L 683,622 L 683,621 L 683,620 L 683,619 L 683,618 L 683,617 L 683,616 L 683,615 L 683,614 L 683,613 L 683,612 L 683,611 L 683,610 L 683,609 L 683,608 L 683,607 L 683,606 L 683,605 L 683,604 L 683,603 L 683,602 L 684,601 L 685,602 L 685,603 L 685,602 L 684,601 L 685,600 L 684,601 L 683,601 L 682,600 L 682,599 L 682,598 L 682,597 L 682,596 L 682,595 L 682,594 L 682,593 L 682,592 L 683,591 L 682,590 L 683,589 L 684,589 L 685,590 L 685,589 L 684,589 L 683,589 L 682,588 L 683,587 L 682,588 L 681,587 L 681,586 L 682,585 L 681,584 L 681,583 L 681,582 L 681,581 L 681,580 L 680,579 L 681,578 L 681,577 L 680,576 L 681,575 L 682,574 L 681,574 L 680,573 L 680,572 L 681,571 L 682,571 L 683,570 L 682,569 L 683,568 L 684,568 L 683,568 L 682,569 L 681,568 L 680,569 L 679,568 L 679,567 L 679,566 L 679,565 L 679,564 L 679,563 L 678,562 L 679,561 L 678,560 L 678,559 L 679,558 L 678,557 L 678,556 L 677,555 L 678,554 L 679,554 L 678,554 L 677,553 L 677,552 L 677,551 L 677,550 L 678,549 L 677,548 L 678,547 L 679,546 L 678,547 L 677,548 L 676,547 L 676,546 L 677,545 L 678,544 L 679,543 L 678,542 L 679,541 L 678,542 L 679,543 L 678,544 L 677,545 L 676,544 L 676,543 L 676,542 L 676,541 L 677,540 L 677,539 L 677,538 L 676,537 L 675,536 L 674,535 L 674,534 L 675,533 L 674,532 L 674,531 L 675,530 L 676,529 L 677,529 L 678,529 L 679,530 L 678,529 L 677,529 L 676,529 L 675,528 L 674,529 L 673,528 L 673,527 L 673,526 L 673,525 L 673,524 L 672,523 L 673,522 L 673,521 L 672,520 L 673,519 L 674,518 L 675,519 L 675,520 L 675,519 L 674,518 L 674,517 L 673,516 L 672,516 L 671,515 L 672,514 L 673,514 L 674,514 L 675,513 L 676,513 L 677,513 L 678,514 L 678,515 L 679,516 L 679,517 L 679,516 L 678,515 L 678,514 L 677,513 L 676,513 L 675,513 L 674,512 L 675,513 L 674,514 L 673,514 L 672,514 L 671,513 L 670,512 L 671,511 L 671,510 L 670,509 L 670,508 L 671,507 L 671,506 L 671,505 L 671,504 L 671,503 L 671,502 L 671,501 L 671,500 L 671,499 L 671,498 L 671,497 L 671,496 L 671,495 L 671,494 L 671,493 L 671,492 L 671,491 L 671,490 L 671,489 L 671,488 L 671,487 L 671,486 L 671,485 L 671,484 L 670,483 L 670,482 L 670,481 L 670,480 L 670,479 L 671,478 L 670,477 L 670,476 L 671,475 L 670,474 L 671,473 L 670,474 L 669,473 L 669,472 L 669,471 L 669,470 L 670,469 L 669,468 L 670,467 L 671,466 L 670,467 L 669,468 L 668,467 L 668,466 L 669,465 L 670,464 L 670,463 L 669,462 L 668,462 L 667,461 L 667,460 L 668,459 L 669,460 L 670,459 L 669,458 L 670,457 L 671,457 L 670,457 L 669,456 L 669,455 L 669,456 L 670,457 L 669,458 L 668,458 L 667,457 L 666,456 L 665,455 L 665,454 L 665,453 L 665,452 L 664,451 L 665,450 L 665,449 L 664,448 L 663,447 L 663,446 L 663,445 L 663,444 L 662,443 L 662,442 L 662,441 L 662,440 L 663,439 L 663,438 L 662,437 L 661,436 L 662,435 L 663,434 L 662,435 L 661,436 L 660,435 L 660,434 L 661,433 L 661,432 L 662,431 L 663,431 L 662,431 L 661,430 L 660,431 L 659,430 L 658,429 L 659,428 L 660,427 L 659,428 L 658,428 L 657,427 L 658,426 L 657,425 L 658,424 L 659,424 L 660,425 L 661,424 L 661,423 L 661,422 L 661,423 L 661,424 L 660,425 L 659,424 L 659,423 L 658,422 L 658,421 L 657,420 L 656,420 L 655,421 L 654,420 L 654,419 L 653,418 L 652,417 L 651,416 L 651,415 L 650,414 L 651,413 L 652,412 L 651,411 L 651,410 L 650,409 L 649,409 L 648,408 L 648,407 L 649,406 L 650,407 L 649,406 L 650,405 L 651,405 L 652,406 L 652,407 L 652,408 L 653,409 L 653,410 L 654,411 L 655,412 L 654,411 L 653,410 L 653,409 L 652,408 L 652,407 L 653,406 L 654,406 L 655,407 L 655,408 L 655,409 L 655,408 L 655,407 L 654,406 L 653,406 L 652,406 L 651,405 L 651,404 L 650,404 L 649,403 L 648,403 L 647,403 L 646,402 L 647,401 L 648,401 L 649,401 L 650,400 L 649,401 L 648,401 L 647,401 L 646,401 L 645,400 L 645,399 L 645,398 L 644,397 L 644,396 L 645,395 L 646,396 L 645,395 L 646,394 L 647,394 L 646,394 L 645,395 L 644,394 L 643,393 L 642,392 L 643,391 L 642,390 L 642,389 L 641,388 L 640,388 L 639,387 L 640,386 L 641,386 L 642,386 L 643,385 L 644,385 L 645,385 L 646,386 L 646,387 L 647,388 L 647,389 L 647,388 L 646,387 L 646,386 L 645,385 L 644,385 L 643,385 L 642,384 L 643,385 L 642,386 L 641,386 L 640,386 L 639,387 L 638,387 L 637,386 L 638,385 L 639,384 L 639,383 L 638,383 L 637,382 L 636,383 L 635,382 L 634,381 L 635,380 L 636,379 L 635,380 L 634,380 L 633,379 L 634,378 L 633,377 L 634,376 L 635,376 L 636,377 L 637,376 L 637,375 L 637,374 L 637,375 L 637,376 L 636,377 L 635,376 L 635,375 L 634,374 L 634,373 L 633,372 L 632,372 L 631,371 L 632,370 L 633,370 L 634,370 L 635,369 L 636,369 L 637,369 L 638,370 L 638,371 L 639,372 L 639,373 L 639,372 L 638,371 L 638,370 L 637,369 L 636,369 L 635,369 L 634,368 L 635,369 L 634,370 L 633,370 L 632,370 L 631,369 L 630,368 L 629,367 L 629,366 L 629,365 L 628,364 L 629,363 L 630,362 L 631,361 L 630,360 L 630,359 L 631,358 L 630,357 L 631,356 L 630,355 L 631,354 L 630,353 L 631,352 L 631,351 L 630,350 L 629,350 L 628,350 L 627,349 L 627,348 L 626,348 L 625,347 L 624,347 L 623,347 L 622,346 L 623,345 L 624,345 L 625,345 L 626,344 L 625,345 L 624,345 L 623,345 L 622,345 L 621,344 L 621,343 L 621,342 L 620,341 L 621,340 L 620,339 L 619,338 L 620,337 L 621,336 L 622,337 L 622,338 L 623,338 L 622,337 L 621,336 L 621,335 L 622,334 L 623,334 L 622,334 L 621,333 L 622,334 L 621,335 L 621,336 L 620,337 L 619,338 L 618,337 L 618,336 L 617,335 L 618,334 L 619,333 L 618,334 L 617,334 L 616,333 L 617,332 L 618,331 L 619,330 L 620,329 L 621,330 L 620,329 L 621,328 L 620,329 L 619,328 L 620,329 L 619,330 L 618,330 L 617,329 L 617,328 L 617,329 L 616,330 L 615,329 L 615,328 L 615,327 L 614,326 L 614,325 L 615,324 L 614,325 L 613,324 L 613,323 L 614,322 L 613,322 L 612,321 L 613,320 L 614,320 L 614,319 L 613,320 L 612,321 L 611,320 L 611,319 L 612,318 L 611,317 L 612,316 L 613,315 L 614,314 L 615,315 L 614,314 L 615,313 L 614,314 L 613,315 L 612,316 L 611,315 L 610,314 L 610,313 L 609,312 L 608,313 L 607,313 L 606,312 L 606,311 L 606,310 L 607,309 L 606,308 L 605,307 L 606,306 L 607,306 L 606,305 L 607,304 L 606,305 L 605,304 L 605,303 L 605,302 L 605,301 L 605,300 L 605,299 L 605,298 L 605,297 L 605,296 L 606,295 L 606,294 L 605,293 L 605,292 L 606,291 L 607,292 L 606,291 L 607,290 L 606,289 L 607,288 L 607,287 L 608,286 L 608,285 L 609,284 L 610,285 L 611,286 L 610,287 L 611,287 L 612,286 L 613,287 L 614,287 L 613,287 L 612,286 L 612,285 L 611,284 L 612,283 L 613,283 L 614,284 L 613,283 L 614,282 L 615,282 L 614,282 L 613,283 L 612,283 L 611,284 L 610,285 L 609,284 L 609,283 L 610,282 L 611,281 L 612,281 L 613,280 L 613,279 L 614,278 L 613,277 L 613,276 L 614,275 L 613,274 L 614,275 L 613,276 L 613,277 L 612,278 L 611,277 L 611,276 L 611,275 L 611,274 L 611,273 L 611,272 L 612,271 L 613,272 L 612,271 L 612,270 L 612,269 L 612,268 L 612,267 L 612,266 L 612,265 L 612,264 L 613,263 L 613,262 L 614,261 L 615,260 L 614,261 L 613,262 L 612,261 L 612,260 L 612,259 L 612,258 L 613,257 L 614,256 L 615,257 L 614,256 L 614,255 L 613,254 L 612,254 L 611,253 L 611,252 L 612,251 L 613,252 L 614,251 L 613,250 L 614,249 L 615,249 L 614,249 L 613,248 L 614,247 L 615,246 L 614,247 L 613,248 L 612,247 L 612,246 L 613,245 L 612,244 L 613,243 L 612,242 L 611,241 L 610,241 L 609,241 L 608,241 L 607,240 L 607,239 L 606,238 L 606,237 L 607,236 L 606,237 L 605,236 L 605,235 L 606,234 L 605,234 L 604,233 L 605,232 L 606,232 L 607,231 L 606,232 L 605,232 L 604,233 L 603,232 L 603,231 L 604,230 L 605,230 L 606,229 L 605,228 L 604,227 L 604,228 L 603,229 L 602,229 L 601,228 L 602,227 L 601,227 L 600,226 L 600,225 L 601,224 L 600,225 L 599,224 L 599,223 L 598,222 L 599,221 L 598,220 L 599,219 L 598,220 L 597,219 L 597,218 L 598,217 L 598,216 L 597,215 L 596,214 L 596,213 L 595,212 L 595,211 L 596,210 L 597,211 L 596,210 L 595,209 L 596,208 L 595,209 L 594,208 L 594,207 L 595,206 L 594,205 L 595,204 L 594,205 L 593,204 L 593,203 L 592,202 L 593,201 L 594,201 L 595,202 L 596,202 L 595,202 L 594,201 L 594,200 L 593,201 L 592,202 L 591,201 L 591,200 L 590,199 L 591,198 L 590,198 L 589,197 L 590,196 L 591,196 L 590,196 L 589,195 L 588,194 L 589,193 L 590,193 L 591,194 L 590,193 L 589,193 L 588,192 L 589,191 L 589,190 L 589,191 L 588,192 L 587,191 L 586,190 L 586,189 L 585,188 L 584,188 L 583,187 L 584,186 L 585,186 L 586,186 L 587,185 L 588,185 L 589,185 L 590,186 L 590,187 L 591,188 L 591,189 L 591,188 L 590,187 L 590,186 L 589,185 L 588,185 L 587,185 L 586,184 L 587,185 L 586,186 L 585,186 L 584,186 L 583,185 L 582,184 L 582,185 L 583,185 L 584,186 L 583,187 L 582,188 L 581,187 L 580,186 L 579,185 L 578,184 L 577,185 L 576,184 L 575,184 L 574,183 L 574,182 L 575,181 L 574,180 L 573,181 L 574,182 L 573,183 L 572,183 L 571,182 L 570,181 L 569,181 L 568,181 L 567,180 L 568,179 L 567,178 L 567,177 L 568,176 L 569,177 L 570,176 L 571,177 L 571,178 L 570,179 L 571,178 L 571,177 L 570,176 L 569,177 L 568,176 L 567,177 L 566,176 L 566,177 L 567,178 L 566,179 L 565,179 L 564,179 L 563,178 L 563,177 L 562,178 L 561,177 L 560,176 L 559,176 L 558,175 L 558,174 L 559,173 L 558,172 L 557,173 L 558,174 L 557,175 L 556,175 L 555,174 L 554,173 L 553,173 L 552,173 L 551,172 L 552,171 L 551,170 L 550,169 L 551,168 L 552,168 L 553,169 L 554,168 L 555,169 L 555,170 L 554,171 L 555,170 L 555,169 L 554,168 L 553,169 L 552,168 L 551,168 L 550,169 L 549,169 L 548,168 L 549,169 L 548,170 L 547,170 L 546,169 L 545,168 L 544,168 L 543,167 L 542,166 L 543,165 L 542,164 L 543,163 L 543,162 L 542,161 L 543,162 L 543,163 L 542,164 L 543,165 L 542,166 L 541,166 L 540,166 L 539,165 L 538,164 L 537,163 L 536,162 L 535,163 L 534,163 L 533,162 L 534,161 L 533,160 L 533,159 L 533,158 L 533,159 L 533,160 L 532,161 L 531,161 L 530,160 L 531,159 L 530,158 L 530,157 L 529,156 L 528,156 L 527,156 L 526,156 L 526,157 L 525,158 L 524,157 L 523,157 L 522,157 L 521,156 L 521,155 L 521,154 L 522,153 L 523,154 L 523,155 L 524,155 L 525,154 L 526,153 L 527,154 L 528,154 L 529,154 L 530,154 L 531,153 L 532,153 L 533,153 L 534,154 L 534,155 L 535,156 L 535,157 L 535,156 L 534,155 L 534,154 L 533,153 L 532,153 L 531,153 L 530,152 L 531,153 L 530,154 L 529,154 L 528,154 L 527,154 L 526,153 L 525,152 L 526,153 L 525,154 L 524,155 L 523,154 L 523,153 L 523,152 L 522,153 L 521,152 L 520,153 L 519,153 L 518,152 L 517,153 L 516,152 L 517,153 L 518,152 L 519,153 L 520,153 L 521,154 L 520,155 L 519,156 L 518,155 L 517,155 L 516,155 L 515,155 L 514,155 L 513,154 L 514,153 L 513,154 L 512,155 L 511,155 L 510,154 L 511,153 L 512,152 L 511,153 L 510,153 L 509,154 L 508,153 L 507,153 L 506,154 L 505,154 L 504,154 L 503,154 L 502,154 L 501,154 L 500,154 L 499,154 L 498,154 L 497,154 L 496,154 L 495,154 L 494,153 L 495,152 L 494,153 L 493,152 L 492,153 L 491,153 L 490,153 L 489,152 L 488,153 L 487,153 L 486,152 L 485,151 L 484,152 L 483,151 L 482,150 L 482,149 L 483,148 L 484,149 L 485,149 L 486,149 L 487,150 L 486,149 L 487,148 L 486,149 L 485,148 L 484,147 L 483,148 L 482,149 L 481,148 L 481,147 L 481,146 L 480,145 L 479,145 L 478,144 L 479,143 L 478,144 L 477,143 L 477,142 L 478,141 L 479,141 L 478,140 L 478,141 L 477,142 L 476,142 L 475,141 L 475,140 L 475,139 L 474,138 L 473,138 L 472,138 L 471,137 L 472,136 L 471,137 L 470,136 L 470,135 L 471,134 L 470,133 L 469,132 L 470,131 L 471,131 L 470,130 L 470,129 L 471,128 L 470,129 L 469,129 L 468,128 L 469,129 L 468,130 L 467,131 L 466,131 L 465,130 L 466,129 L 465,130 L 464,129 L 463,129 L 462,128 L 463,127 L 462,128 L 461,127 L 461,126 L 462,125 L 463,125 L 462,124 L 462,125 L 461,126 L 460,126 L 459,125 L 459,124 L 459,123 L 458,122 L 457,122 L 456,122 L 455,122 L 454,121 L 455,120 L 456,120 L 455,120 L 454,119 L 455,118 L 454,117 L 453,118 L 452,118 L 451,118 L 450,118 L 449,117 L 448,116 L 447,115 L 448,114 L 449,114 L 450,115 L 451,114 L 452,115 L 452,116 L 452,115 L 451,114 L 450,113 L 451,112 L 452,112 L 453,113 L 454,113 L 455,112 L 454,113 L 453,113 L 452,112 L 451,112 L 450,113 L 449,112 L 450,113 L 449,114 L 448,114 L 447,114 L 446,113 L 447,112 L 447,111 L 447,112 L 446,113 L 445,112 L 445,111 L 445,110 L 445,111 L 445,112 L 444,113 L 443,113 L 442,112 L 443,111 L 442,110 L 442,109 L 441,108 L 440,108 L 439,108 L 438,108 L 438,109 L 437,110 L 436,109 L 435,109 L 434,109 L 433,108 L 433,107 L 433,106 L 434,105 L 435,106 L 435,107 L 436,107 L 437,106 L 438,105 L 439,106 L 440,106 L 441,106 L 442,106 L 443,105 L 444,105 L 445,105 L 446,106 L 446,107 L 447,108 L 447,109 L 447,108 L 446,107 L 446,106 L 445,105 L 444,105 L 443,105 L 442,104 L 443,105 L 442,106 L 441,106 L 440,106 L 439,106 L 438,105 L 437,104 L 438,105 L 437,106 L 436,107 L 435,106 L 435,105 L 435,104 L 434,105 L 433,104 L 432,105 L 431,106 L 430,107 L 429,107 L 428,107 L 427,106 L 428,105 L 427,106 L 426,105 L 425,106 L 424,106 L 423,106 L 422,105 L 423,104 L 424,104 L 423,104 L 422,105 L 421,106 L 420,106 L 419,105 L 418,104 L 417,105 L 416,105 L 415,105 L 414,105 L 413,105 L 412,105 L 411,105 L 410,105 L 409,105 L 408,105 L 407,105 L 406,104 L 407,103 L 406,104 L 405,103 L 405,102 L 406,101 L 405,102 L 404,101 L 404,100 L 405,99 L 406,98 L 407,97 L 406,96 L 406,95 L 407,94 L 406,93 L 406,92 L 406,91 L 407,90 L 407,89 L 407,90 L 406,91 L 405,90 L 405,89 L 404,88 L 405,89 L 405,90 L 406,91 L 406,92 L 406,93 L 407,94 L 406,95 L 405,95 L 404,94 L 403,95 L 402,95 L 401,94 L 402,93 L 403,92 L 404,92 L 403,92 L 402,91 L 403,90 L 402,91 L 401,90 L 400,89 L 401,88 L 402,88 L 401,88 L 400,89 L 399,88 L 399,87 L 399,86 L 399,85 L 398,84 L 398,83 L 399,82 L 398,81 L 397,80 L 398,79 L 399,78 L 398,77 L 399,76 L 398,75 L 397,76 L 396,75 L 396,74 L 396,73 L 397,72 L 397,71 L 398,70 L 399,70 L 398,70 L 397,69 L 396,70 L 395,69 L 394,68 L 395,67 L 394,66 L 395,65 L 395,64 L 395,65 L 394,66 L 393,66 L 392,65 L 392,64 L 391,63 L 391,62 L 391,61 L 390,60 L 390,59 L 389,58 L 390,57 L 389,57 L 388,56 L 387,55 L 388,54 L 387,53 L 386,52 L 386,51 L 387,50 L 388,51 L 389,52 L 390,51 L 389,52 L 388,51 L 387,50 L 388,49 L 387,50 L 386,49 L 385,48 L 385,47 L 385,46 L 385,45 L 385,44 L 384,43 L 385,42 L 385,41 L 384,40 L 383,39 L 383,38 L 383,37 L 383,36 L 383,35 L 382,34 L 383,33 L 382,33 L 381,32 L 382,31 L 383,30 L 382,31 L 381,31 L 380,30 L 381,29 L 380,29 L 379,28 L 379,27 L 380,26 L 379,27 L 378,26 L 378,25 L 377,24 L 377,23 L 378,22 L 379,23 L 380,24 L 381,23 L 381,22 L 381,23 L 380,24 L 379,23 L 378,22 L 378,21 L 377,20 L 376,20 L 375,20 L 374,19 L 375,18 L 376,18 L 377,18 L 378,18 L 379,17 L 380,17 L 381,17 L 382,18 L 382,19 L 383,20 L 383,21 L 383,20 L 382,19 L 382,18 L 381,17 L 380,17 L 379,17 L 378,16 L 379,17 L 378,18 L 377,18 L 376,18 L 375,18 L 374,19 L 373,18 L 372,18 L 371,17 L 370,17 L 369,16 L 369,15 L 370,14 L 371,15 L 370,14 L 370,13 L 369,12 L 368,12 L 367,13 L 366,12 L 365,12 L 364,13 L 363,12 L 362,11 L 363,10 L 363,9 L 362,8 L 361,8 L 360,9 L 359,9 L 358,8 L 357,8 L 356,7 L 355,7 L 354,6 L 355,5 L 354,4 L 355,3 L 356,3 L 357,3 L 358,4 L 358,5 L 358,6 L 358,5 L 359,4 L 358,4 L 357,3 L 358,2 L 359,2 L 358,1 L 357,0 L 356,1 L 357,0 L 358,1 L 358,2 L 357,3 L 356,3 L 355,3 L 354,4 L 353,4 L 352,3 L 353,2 L 352,3 L 351,2 L 350,1 L 351,0 L 352,0 L 351,0 L 350,1 L 349,1 L 348,0 L 347,1 L 346,2 L 345,2 L 344,1 L 345,0 L 344,1 L 343,1 L 342,0 L 341,1 L 340,0 L 339,0 L 338,0 L 337,0 L 336,0 L 335,0 L 334,0 L 333,0 L 332,0 L 331,0 L 330,0 L 329,0 L 328,0 L 327,0 L 326,0 L 325,0 L 324,0 L 323,0 L 322,0 L 321,0 L 320,0 L 319,0 L 318,0 L 317,0 L 316,0 L 315,0 L 314,0 L 313,0 L 312,0 L 311,0 L 310,0 L 309,1 L 308,1 L 307,1 L 306,0 L 305,0 L 304,1 L 303,1 L 302,0 L 301,1 L 300,1 L 299,0 L 298,1 L 297,0 L 298,1 L 297,2 L 296,2 L 295,2 L 294,2 L 293,1 L 292,2 L 291,1 L 292,2 L 291,3 L 290,3 L 289,3 L 288,2 L 287,2 L 286,1 L 285,0 L 284,1 L 283,1 L 282,1 Z" fill="black"/>
</svg>