<svg xmlns="http://www.w3.org/2000/svg" viewBox="0 0 2880 1472" fill="none">
  <path fill="#000" d="M1460 120c-120 0-210 92-210 210 0 60 24 117 67 158l-87 212-205 167c-83 67-131 168-131 275v210h1092v-210c0-107-48-208-131-275l-205-167-87-212c43-41 67-98 67-158 0-118-90-210-210-210Zm-210 782 120-174 90-222h80l90 222 120 174c-42 28-70 75-70 128v322h-360V1030c0-53-28-100-70-128Zm-226 128c0-27 21-48 48-48h120c27 0 48 21 48 48v322h-216V1030Zm616 0c0-27 21-48 48-48h120c27 0 48 21 48 48v322h-216V1030Z"/>
</svg>