<svg width="685" height="696" viewBox="0 0 685 696" fill="none" xmlns="http://www.w3.org/2000/svg">
<path fill-rule="evenodd" clip-rule="evenodd" d="M302.184 0.963113C292.732 1.96411 287.291 3.38511 281.403 6.39011C276.513 8.88511 260.05 25.1981 256.684 30.8821C255.544 32.8071 251.973 41.1321 248.749 49.3821L242.886 64.3821V80.0471C242.886 88.6621 242.61 95.9881 242.272 96.3271C241.934 96.6661 235.941 99.1371 228.953 101.818C217.301 106.288 203.59 113.348 197.386 118.071C187.212 125.816 179.096 136.438 174.607 147.882C165.611 170.817 162.386 179.413 162.386 180.459C162.386 181.365 161.324 181.431 158.169 180.722C155.849 180.201 153.022 180.008 151.886 180.293C150.75 180.578 145.935 181.253 141.186 181.792C132.03 182.833 120.913 187.416 116.981 191.772C115.933 192.932 114.133 193.886 112.981 193.892C109.251 193.909 100.72 198.577 98.1173 202.024C96.7233 203.871 94.9263 206.957 94.1233 208.882C93.3203 210.807 89.5633 215.503 85.7743 219.319C78.8803 226.261 75.8513 230.583 70.6593 240.882C68.0243 246.109 67.8693 247.193 67.5493 262.694C67.2193 278.646 67.2703 279.125 69.8663 284.431C71.3263 287.414 72.2923 290.225 72.0133 290.676C71.7343 291.128 71.2503 294.396 70.9373 297.94C69.7413 311.468 69.5043 312.157 63.7073 318.937C58.7293 324.76 56.9083 327.835 52.7853 337.382C52.0733 339.032 50.3133 343.082 48.8753 346.382C47.4373 349.682 45.5923 356.207 44.7753 360.882C43.9583 365.557 42.6523 371.407 41.8733 373.882C41.0943 376.357 39.9513 382.432 39.3333 387.382C38.7163 392.332 37.6183 398.407 36.8943 400.882C36.1713 403.357 35.2633 407.857 34.8783 410.882C34.4323 414.375 33.1063 418.017 31.2423 420.862C29.6283 423.327 27.5943 427.827 26.7213 430.862C25.8483 433.898 24.0623 438.228 22.7513 440.485C19.7243 445.698 18.3913 454.979 17.7403 475.382C17.3263 488.367 16.8233 492.513 15.0683 497.382C13.1033 502.838 12.8783 505.733 12.5843 529.316C12.2793 553.781 12.1413 555.417 10.1603 558.2C9.00428 559.822 7.26228 563.902 6.28728 567.266C5.31228 570.63 3.53428 576.082 2.33628 579.382C0.304277 584.979 0.148277 587.297 0.0222767 613.882C-0.140723 648.058 0.403276 651.007 8.12428 657.786C13.2953 662.326 14.5113 663.553 18.5643 668.328C25.2073 676.152 44.4413 684.349 55.9933 684.278C66.8023 684.211 75.2723 677.17 77.2443 666.612C79.5783 654.12 72.9713 643.952 59.9893 640.057C55.5593 638.728 51.9433 636.751 48.4613 633.751C43.6413 629.6 41.8593 625.882 44.6903 625.882C45.4083 625.882 48.0533 624.577 50.5683 622.982C53.9413 620.843 55.8633 618.606 57.8913 614.462C61.0833 607.938 61.4583 607.611 64.7943 608.448C66.5273 608.883 67.6773 610.198 68.5403 612.729C69.2903 614.93 69.9243 615.736 70.1353 614.756C70.5273 612.935 72.1993 612.692 97.7543 610.741L113.623 609.53L113.137 601.956C112.475 591.63 109.561 584.649 102.322 576.049C96.7603 569.441 88.9663 563.882 85.2643 563.882C84.6103 563.882 82.5703 562.734 80.7303 561.331L77.3863 558.78L77.3973 546.081C77.4133 527.433 77.4903 527.179 85.8733 518.156C89.8523 513.873 94.9923 507.671 97.2953 504.375C105.137 493.151 112.877 484.216 117.578 480.962C123.548 476.829 130.254 469.669 133.763 463.682C136.995 458.168 150.386 417.177 150.386 412.799C150.386 410.39 151.599 408.653 156.368 404.238C163.231 397.884 167.891 389.308 168.913 381.151C169.563 375.964 172.444 370.867 174.709 370.899C176.647 370.926 200.268 394.442 201.432 397.504C203.631 403.287 205.386 414.257 205.386 422.219V430.425L200.258 437.403C190.075 451.261 186.803 461.371 187.645 476.382C188.377 489.437 191.044 495.739 199.295 503.909C206.306 510.852 209.615 512.793 223.886 518.332C236.278 523.142 243.14 524.788 255.386 525.888C289.341 528.939 300.877 529.915 309.386 530.459C314.611 530.793 326.086 531.907 334.886 532.933C378.895 538.068 403.592 538.078 424.946 532.97C432.063 531.268 442.836 528.795 448.886 527.475C464.602 524.045 470.468 521.574 476.94 515.658C487.084 506.388 488.961 499.345 488.009 474.142C487.66 464.924 487.102 454.124 486.768 450.141C486.301 444.564 486.552 441.922 487.864 438.641C490.636 431.707 499.479 417.376 510.653 401.708L521.119 387.034L525.252 391.246C527.526 393.562 529.386 396.014 529.386 396.695C529.386 397.375 530.323 400.508 531.468 403.657C532.614 406.806 535.055 415.074 536.895 422.03C538.734 428.986 542.099 439.111 544.372 444.53C546.645 449.949 550.505 459.469 552.949 465.686C557.502 477.266 561.416 484.183 568.451 493.084C570.651 495.866 574.289 501.292 576.538 505.142C578.786 508.992 582.166 513.846 584.048 515.93C585.93 518.013 588.555 522.486 589.881 525.87C591.207 529.254 593.853 534.814 595.761 538.225L599.23 544.428L589.414 555.405C584.016 561.442 577.576 568.05 575.103 570.089C562.898 580.154 562.059 597.455 573.309 607.084C580.536 613.27 590.839 614.27 598.63 609.542C603.834 606.384 613.321 599.141 617.673 595.004L621.46 591.404L627.173 594.393C632.723 597.297 632.894 597.51 633.172 601.882C633.632 609.094 629.877 631.999 627.459 636.739C626.162 639.281 622.883 642.801 619.15 645.66C603.593 657.572 600.947 661.455 600.942 672.382C600.938 680.005 602.265 683.465 607.043 688.3C613.97 695.308 625.93 697.069 635.828 692.537C638.839 691.159 645.034 689.275 649.595 688.352C669.69 684.285 678.886 675.299 683 655.71C684.239 649.814 684.415 644.377 683.901 627.882C682.83 593.447 680.334 568.98 673.954 530.382C671.226 513.878 670.733 508.602 671.131 500.201C671.79 486.287 670.044 472.86 664.832 451.771C660.296 433.421 657.041 424.015 653.509 419.054C652.396 417.492 650.144 412.537 648.504 408.043C646.864 403.55 643.491 396.612 641.008 392.627C635.237 383.366 633.111 378.5 629.02 365.185C627.195 359.243 623.66 349.432 621.167 343.382C618.673 337.332 615.89 330.311 614.983 327.779C614.075 325.248 611.697 320.523 609.697 317.279C606.322 311.805 606.029 310.695 605.614 301.806C605.222 293.4 605.434 291.708 607.351 287.95C610.036 282.687 612.345 272.166 612.369 265.09C612.4 255.425 609.607 244.986 603.75 232.882C600.689 226.557 597.295 218.007 596.208 213.882C591.702 196.782 585.064 189.237 566.246 179.827C559.448 176.428 547.488 170.06 539.669 165.676C531.849 161.292 523.299 157.058 520.669 156.266C518.038 155.474 509.766 154.414 502.286 153.91C494.805 153.407 487.514 152.701 486.083 152.342C484.573 151.963 481.837 149.513 479.568 146.507C474.328 139.566 462.273 127.486 453.79 120.673C440.471 109.976 431.511 106.353 415.61 105.235L406.132 104.569L403.767 99.4031C402.466 96.5621 400 88.8761 398.287 82.3241C396.573 75.7721 393.426 66.9391 391.292 62.6961C389.059 58.2551 386.357 50.5101 384.924 44.4461C380.608 26.1781 376.172 20.0611 359.634 9.57211C345.826 0.814113 342.321 -0.143887 324.661 0.0151133C316.535 0.0881133 306.42 0.515113 302.184 0.963113Z" fill="black"/>
</svg>
