<svg width="685" height="696" viewBox="0 0 685 696" fill="none" xmlns="http://www.w3.org/2000/svg">
<path fill-rule="evenodd" clip-rule="evenodd" d="M302.438 0.528149C284.309 3.25115 281.296 4.75415 268.286 17.5751C256.721 28.9711 256.175 29.8471 247.821 50.3801L242.938 62.3801L242.438 79.2952L241.938 96.2112L229.438 101.356C192.44 116.586 182.967 125.588 170.514 157.347C167.229 165.724 163.959 174.447 163.246 176.731L161.95 180.884L157.444 180.305C146.571 178.907 125.983 184.176 117.733 190.469C115.914 191.856 112.29 193.629 109.682 194.407C103.497 196.253 98.0269 200.866 94.3949 207.302C92.7889 210.149 88.1759 216.126 84.1459 220.584C77.0109 228.476 71.1449 237.738 68.7649 244.866C68.0839 246.907 67.5589 254.931 67.5149 264.003C67.4469 277.763 67.6859 280.187 69.5209 284.335C71.4509 288.699 71.5259 289.765 70.5369 298.855C69.2249 310.915 68.8219 311.998 62.9599 319.194C57.5879 325.789 49.5809 342.073 46.6439 352.38C44.3159 360.547 40.8489 376.742 36.4919 399.801C34.1719 412.079 32.6659 417.504 30.5249 421.301C28.9499 424.095 27.3359 427.505 26.9379 428.88C26.5399 430.255 24.9069 434.399 23.3079 438.089C19.3789 447.159 18.5199 452.328 17.4409 473.38C16.8469 484.982 15.9399 493.157 14.8889 496.38C13.6569 500.16 13.0609 507.871 12.4479 527.974C11.7049 552.362 11.4579 554.921 9.4719 558.814C8.2809 561.149 5.6779 567.856 3.6889 573.719L0.0718994 584.38L0.00489941 613.88C-0.0451006 635.899 0.280899 644.561 1.2919 648.038C2.4129 651.892 4.5869 654.611 13.8779 663.777C23.3299 673.103 26.3339 675.424 32.8469 678.433C44.2009 683.679 53.8269 685.559 61.0539 683.942C72.9029 681.29 80.4309 668.945 77.4679 657.026C75.2779 648.219 70.8339 643.846 59.5999 639.443C53.0739 636.886 46.1089 632.003 44.3809 628.773C43.5199 627.165 43.7999 626.693 46.1429 625.802C51.0299 623.944 55.4209 619.88 58.5689 614.302C62.4849 607.363 66.0229 607.027 68.4329 613.366C69.1149 615.161 69.8269 615.868 70.2549 615.175C70.6419 614.55 72.1719 613.734 73.6559 613.361C77.0619 612.507 81.9349 615.738 82.8719 619.473C84.0679 624.237 86.4599 626.638 93.2349 629.874C98.5299 632.404 100.778 632.963 103.938 632.54C109.201 631.834 113.374 627.331 113.6 622.114C114.396 603.703 113.267 594.006 109.414 586.18C104.835 576.879 96.7239 568.599 88.0709 564.393C76.3319 558.686 77.0369 560.066 77.7179 544.143C78.0429 536.558 78.7569 529.172 79.3049 527.73C79.8529 526.288 82.8649 522.245 85.9989 518.744C89.1319 515.244 94.4179 508.78 97.7449 504.38C107.77 491.121 111.497 486.923 118.881 480.569C129.942 471.052 134.073 465.389 138.116 454.2C143.025 440.615 150.438 416.788 150.438 414.595C150.438 411.672 152.999 407.698 157.986 402.88C163.384 397.665 167.692 389.711 169.353 381.893C170.68 375.646 172.796 371.88 174.978 371.88C175.8 371.88 182.022 377.454 188.805 384.266C202.833 398.355 202.665 398.009 204.621 417.015L205.818 428.65L198.76 439.109C189.145 453.358 187.938 457.181 187.938 473.38C187.938 485.578 188.115 486.762 190.803 492.582C194.392 500.351 203.565 509.401 212.341 513.831C215.823 515.589 223.907 518.775 230.305 520.912C243.15 525.201 249.26 526.025 296.938 529.901C311.238 531.063 330.813 532.915 340.438 534.016C362.843 536.58 397.827 537.556 409.851 535.951C424.382 534.013 461.25 525.16 467.897 522.013C475.102 518.603 482.963 511.1 485.85 504.88C487.823 500.627 487.938 498.706 487.938 469.88V439.38L491.309 432.88C494.765 426.218 507.515 406.641 516.203 394.658L521.077 387.936L525.113 392.158C528.662 395.87 529.601 397.951 532.887 409.38C538.977 430.564 542.357 440.395 549.985 459.114C557.4 477.312 559.837 481.603 575.981 504.88C581.13 512.305 588.282 524.197 591.874 531.307L598.406 544.234L596.054 547.307C594.761 548.997 587.99 556.356 581.007 563.66C574.024 570.964 567.665 578.487 566.875 580.378C564.87 585.176 565.087 594.519 567.317 599.38C570.801 606.975 577.104 611.579 585.354 612.556C593.622 613.536 598.954 610.923 614.481 598.285L622.148 592.044L627.293 594.982L632.438 597.92V604.769C632.438 611.456 630.419 625.41 628.304 633.34C627.541 636.201 625.567 638.837 621.192 642.84C605.155 657.511 602.656 660.296 601.425 664.88C599.657 671.459 600.716 680.191 603.858 684.938C610.612 695.145 623.026 697.929 637.166 692.409C639.241 691.599 645.311 689.815 650.656 688.445C670.588 683.335 678.068 676.467 682.478 659.224C686.875 642.032 683.685 587.233 675.355 536.855C673.098 523.207 672.067 512.763 671.41 496.88C670.513 475.219 669.794 470.067 664.985 450.88C661.147 435.566 658.679 428.318 654.394 419.785C652.296 415.608 649.415 409.322 647.991 405.818C646.567 402.313 642.959 395.156 639.973 389.913C636.499 383.812 632.586 374.62 629.105 364.38C622.133 343.873 614.567 325.003 609.947 316.597C606.311 309.983 606.308 309.966 606.716 299.678C607.016 292.105 607.731 287.792 609.419 283.38C611.053 279.107 611.849 274.502 612.182 267.38C612.755 255.162 611.347 249.064 604.229 232.94C601.452 226.649 597.861 217.424 596.249 212.44C589.514 191.616 588.447 190.751 534.938 162.786C521.052 155.529 517.803 154.654 499.938 153.36C485.581 152.321 484.437 151.824 477.852 143.774C469.912 134.07 455.47 120.73 446.438 114.759C437.494 108.846 429.25 106.153 416.513 104.985C409.116 104.307 406.792 103.719 405.716 102.251C404.962 101.222 402.769 95.2051 400.844 88.8801C398.918 82.5552 395.966 73.7801 394.282 69.3801C390.168 58.6271 386.182 47.1611 382.986 36.8801C378.826 23.5012 372.346 16.3691 355.243 6.34515C345.628 0.710149 341.182 -0.136851 322.006 0.0161491C312.619 0.0911491 303.813 0.321149 302.438 0.528149Z" fill="black"/>
</svg>
